<svg width="195" height="39" viewBox="0 0 195 39" fill="none" xmlns="http://www.w3.org/2000/svg">
<path d="M18.5489 2.92705C18.8483 2.00574 20.1517 2.00574 20.4511 2.92705L23.6535 12.7832C23.7874 13.1952 24.1713 13.4742 24.6046 13.4742H34.9679C35.9366 13.4742 36.3394 14.7138 35.5557 15.2832L27.1716 21.3746C26.8211 21.6293 26.6744 22.0806 26.8083 22.4926L30.0108 32.3488C30.3101 33.2701 29.2556 34.0362 28.4719 33.4668L20.0878 27.3754C19.7373 27.1207 19.2627 27.1207 18.9122 27.3754L10.5281 33.4668C9.74437 34.0362 8.68989 33.2701 8.98924 32.3488L12.1917 22.4926C12.3256 22.0806 12.1789 21.6293 11.8284 21.3746L3.4443 15.2832C2.66058 14.7138 3.06336 13.4742 4.03208 13.4742H14.3954C14.8287 13.4742 15.2126 13.1952 15.3465 12.7832L18.5489 2.92705Z" fill="#FFB135"/>
<path d="M96.5489 2.92705C96.8483 2.00574 98.1517 2.00574 98.4511 2.92705L101.654 12.7832C101.787 13.1952 102.171 13.4742 102.605 13.4742H112.968C113.937 13.4742 114.339 14.7138 113.556 15.2832L105.172 21.3746C104.821 21.6293 104.674 22.0806 104.808 22.4926L108.011 32.3488C108.31 33.2701 107.256 34.0362 106.472 33.4668L98.0878 27.3754C97.7373 27.1207 97.2627 27.1207 96.9122 27.3754L88.5281 33.4668C87.7444 34.0362 86.6899 33.2701 86.9892 32.3488L90.1917 22.4926C90.3256 22.0806 90.1789 21.6293 89.8284 21.3746L81.4443 15.2832C80.6606 14.7138 81.0634 13.4742 82.0321 13.4742H92.3954C92.8287 13.4742 93.2126 13.1952 93.3465 12.7832L96.5489 2.92705Z" fill="#FFB135"/>
<path d="M57.5489 2.92705C57.8483 2.00574 59.1517 2.00574 59.4511 2.92705L62.6535 12.7832C62.7874 13.1952 63.1713 13.4742 63.6046 13.4742H73.9679C74.9366 13.4742 75.3394 14.7138 74.5557 15.2832L66.1716 21.3746C65.8211 21.6293 65.6744 22.0806 65.8083 22.4926L69.0108 32.3488C69.3101 33.2701 68.2556 34.0362 67.4719 33.4668L59.0878 27.3754C58.7373 27.1207 58.2627 27.1207 57.9122 27.3754L49.5281 33.4668C48.7444 34.0362 47.6899 33.2701 47.9892 32.3488L51.1917 22.4926C51.3256 22.0806 51.1789 21.6293 50.8284 21.3746L42.4443 15.2832C41.6606 14.7138 42.0634 13.4742 43.0321 13.4742H53.3954C53.8287 13.4742 54.2126 13.1952 54.3465 12.7832L57.5489 2.92705Z" fill="#FFB135"/>
<path d="M135.549 2.92705C135.848 2.00574 137.152 2.00574 137.451 2.92705L140.654 12.7832C140.787 13.1952 141.171 13.4742 141.605 13.4742H151.968C152.937 13.4742 153.339 14.7138 152.556 15.2832L144.172 21.3746C143.821 21.6293 143.674 22.0806 143.808 22.4926L147.011 32.3488C147.31 33.2701 146.256 34.0362 145.472 33.4668L137.088 27.3754C136.737 27.1207 136.263 27.1207 135.912 27.3754L127.528 33.4668C126.744 34.0362 125.69 33.2701 125.989 32.3488L129.192 22.4926C129.326 22.0806 129.179 21.6293 128.828 21.3746L120.444 15.2832C119.661 14.7138 120.063 13.4742 121.032 13.4742H131.395C131.829 13.4742 132.213 13.1952 132.346 12.7832L135.549 2.92705Z" fill="#FFB135"/>
<path d="M174.549 2.92705C174.848 2.00574 176.152 2.00574 176.451 2.92705L179.654 12.7832C179.787 13.1952 180.171 13.4742 180.605 13.4742H190.968C191.937 13.4742 192.339 14.7138 191.556 15.2832L183.172 21.3746C182.821 21.6293 182.674 22.0806 182.808 22.4926L186.011 32.3488C186.31 33.2701 185.256 34.0362 184.472 33.4668L176.088 27.3754C175.737 27.1207 175.263 27.1207 174.912 27.3754L166.528 33.4668C165.744 34.0362 164.69 33.2701 164.989 32.3488L168.192 22.4926C168.326 22.0806 168.179 21.6293 167.828 21.3746L159.444 15.2832C158.661 14.7138 159.063 13.4742 160.032 13.4742H170.395C170.829 13.4742 171.213 13.1952 171.346 12.7832L174.549 2.92705Z" fill="#FFB135"/>
</svg>
