<svg width="29" height="30" viewBox="0 0 29 30" fill="none" xmlns="http://www.w3.org/2000/svg">
<path d="M2 12.7279C0.895431 12.7279 0 13.6233 0 14.7279C0 15.8325 0.895431 16.7279 2 16.7279L2 14.7279L2 12.7279ZM28.4142 16.1421C29.1953 15.3611 29.1953 14.0947 28.4142 13.3137L15.6863 0.58577C14.9052 -0.195279 13.6389 -0.195279 12.8579 0.58577C12.0768 1.36682 12.0768 2.63315 12.8579 3.4142L24.1716 14.7279L12.8579 26.0416C12.0768 26.8227 12.0768 28.089 12.8579 28.87C13.6389 29.6511 14.9052 29.6511 15.6863 28.87L28.4142 16.1421ZM2 14.7279L2 16.7279L27 16.7279V14.7279V12.7279L2 12.7279L2 14.7279Z" fill="#FFAE00"/>
</svg>
