<svg width="29" height="30" viewBox="0 0 29 30" fill="none" xmlns="http://www.w3.org/2000/svg">
<path d="M27 12.7279C28.1046 12.7279 29 13.6233 29 14.7279C29 15.8325 28.1046 16.7279 27 16.7279V14.7279V12.7279ZM0.585786 16.1421C-0.195262 15.3611 -0.195262 14.0947 0.585786 13.3137L13.3137 0.58577C14.0948 -0.195279 15.3611 -0.195279 16.1421 0.58577C16.9232 1.36682 16.9232 2.63315 16.1421 3.4142L4.82843 14.7279L16.1421 26.0416C16.9232 26.8227 16.9232 28.089 16.1421 28.87C15.3611 29.6511 14.0948 29.6511 13.3137 28.87L0.585786 16.1421ZM27 14.7279V16.7279L2 16.7279V14.7279V12.7279L27 12.7279V14.7279Z" fill="#FFAE00"/>
</svg>
