<svg width="100" height="100" viewBox="0 0 100 100" fill="none" xmlns="http://www.w3.org/2000/svg">
<rect x="50" width="70.7107" height="70.7107" rx="17" transform="rotate(45 50 0)" fill="white"/>
<rect x="50.3032" y="5.30322" width="63.6396" height="63.6396" rx="17" transform="rotate(45 50.3032 5.30322)" fill="#FFDF87"/>
<path d="M35 48C33.8954 48 33 48.8954 33 50C33 51.1046 33.8954 52 35 52V50V48ZM66.4142 51.4142C67.1953 50.6332 67.1953 49.3668 66.4142 48.5858L53.6863 35.8579C52.9052 35.0768 51.6389 35.0768 50.8579 35.8579C50.0768 36.6389 50.0768 37.9052 50.8579 38.6863L62.1716 50L50.8579 61.3137C50.0768 62.0948 50.0768 63.3611 50.8579 64.1421C51.6389 64.9232 52.9052 64.9232 53.6863 64.1421L66.4142 51.4142ZM35 50V52L65 52V50V48L35 48V50Z" fill="#FFAE00"/>
</svg>
