<svg width="666" height="536" viewBox="0 0 666 536" fill="none" xmlns="http://www.w3.org/2000/svg">
<rect x="1" y="1" width="664" height="534" rx="39" fill="white"/>
<rect x="1" y="1" width="664" height="534" rx="39" stroke="#FF6A00" stroke-width="2"/>
<path d="M59.3409 60.7273H64.2045V76.9545C64.2045 78.4545 63.8674 79.7576 63.1932 80.8636C62.5265 81.9697 61.5985 82.822 60.4091 83.4205C59.2197 84.0189 57.8371 84.3182 56.2614 84.3182C54.8598 84.3182 53.5871 84.072 52.4432 83.5795C51.3068 83.0795 50.4053 82.322 49.7386 81.3068C49.072 80.2841 48.7424 79 48.75 77.4545H53.6477C53.6629 78.0682 53.7879 78.5947 54.0227 79.0341C54.2652 79.4659 54.5947 79.7992 55.0114 80.0341C55.4356 80.2614 55.9356 80.375 56.5114 80.375C57.1174 80.375 57.6288 80.2462 58.0455 79.9886C58.4697 79.7235 58.7917 79.3371 59.0114 78.8295C59.2311 78.322 59.3409 77.697 59.3409 76.9545V60.7273ZM73.1591 84.3295C72.0455 84.3295 71.053 84.1364 70.1818 83.75C69.3106 83.3561 68.6212 82.7765 68.1136 82.0114C67.6136 81.2386 67.3636 80.2765 67.3636 79.125C67.3636 78.1553 67.5417 77.3409 67.8977 76.6818C68.2538 76.0227 68.7386 75.4924 69.3523 75.0909C69.9659 74.6894 70.6629 74.3864 71.4432 74.1818C72.2311 73.9773 73.0568 73.8333 73.9205 73.75C74.9356 73.6439 75.7538 73.5455 76.375 73.4545C76.9962 73.3561 77.447 73.2121 77.7273 73.0227C78.0076 72.8333 78.1477 72.553 78.1477 72.1818V72.1136C78.1477 71.3939 77.9205 70.8371 77.4659 70.4432C77.0189 70.0492 76.3826 69.8523 75.5568 69.8523C74.6856 69.8523 73.9924 70.0455 73.4773 70.4318C72.9621 70.8106 72.6212 71.2879 72.4545 71.8636L67.9773 71.5C68.2045 70.4394 68.6515 69.5227 69.3182 68.75C69.9848 67.9697 70.8447 67.3712 71.8977 66.9545C72.9583 66.5303 74.1856 66.3182 75.5795 66.3182C76.5492 66.3182 77.4773 66.4318 78.3636 66.6591C79.2576 66.8864 80.0492 67.2386 80.7386 67.7159C81.4356 68.1932 81.9848 68.8068 82.3864 69.5568C82.7879 70.2992 82.9886 71.1894 82.9886 72.2273V84H78.3977V81.5795H78.2614C77.9811 82.125 77.6061 82.6061 77.1364 83.0227C76.6667 83.4318 76.1023 83.7538 75.4432 83.9886C74.7841 84.2159 74.0227 84.3295 73.1591 84.3295ZM74.5455 80.9886C75.2576 80.9886 75.8864 80.8485 76.4318 80.5682C76.9773 80.2803 77.4053 79.8939 77.7159 79.4091C78.0265 78.9242 78.1818 78.375 78.1818 77.7614V75.9091C78.0303 76.0076 77.822 76.0985 77.5568 76.1818C77.2992 76.2576 77.0076 76.3295 76.6818 76.3977C76.3561 76.4583 76.0303 76.5152 75.7045 76.5682C75.3788 76.6136 75.0833 76.6553 74.8182 76.6932C74.25 76.7765 73.7538 76.9091 73.3295 77.0909C72.9053 77.2727 72.5758 77.5189 72.3409 77.8295C72.1061 78.1326 71.9886 78.5114 71.9886 78.9659C71.9886 79.625 72.2273 80.1288 72.7045 80.4773C73.1894 80.8182 73.803 80.9886 74.5455 80.9886ZM91.5852 73.9091V84H86.7443V66.5455H91.358V69.625H91.5625C91.9489 68.6098 92.5966 67.8068 93.5057 67.2159C94.4148 66.6174 95.517 66.3182 96.8125 66.3182C98.0246 66.3182 99.0814 66.5833 99.983 67.1136C100.884 67.6439 101.585 68.4015 102.085 69.3864C102.585 70.3636 102.835 71.5303 102.835 72.8864V84H97.9943V73.75C98.0019 72.6818 97.7292 71.8485 97.1761 71.25C96.6231 70.6439 95.8617 70.3409 94.892 70.3409C94.2405 70.3409 93.6648 70.4811 93.1648 70.7614C92.6723 71.0417 92.286 71.4508 92.0057 71.9886C91.733 72.5189 91.5928 73.1591 91.5852 73.9091ZM117.844 76.5682V66.5455H122.685V84H118.037V80.8295H117.855C117.461 81.8523 116.806 82.6742 115.889 83.2955C114.98 83.9167 113.87 84.2273 112.56 84.2273C111.393 84.2273 110.366 83.9621 109.48 83.4318C108.594 82.9015 107.901 82.1477 107.401 81.1705C106.908 80.1932 106.658 79.0227 106.651 77.6591V66.5455H111.491V76.7955C111.499 77.8258 111.776 78.6402 112.321 79.2386C112.866 79.8371 113.598 80.1364 114.514 80.1364C115.098 80.1364 115.643 80.0038 116.151 79.7386C116.658 79.4659 117.067 79.0644 117.378 78.5341C117.696 78.0038 117.851 77.3485 117.844 76.5682ZM131.534 84.3295C130.42 84.3295 129.428 84.1364 128.557 83.75C127.686 83.3561 126.996 82.7765 126.489 82.0114C125.989 81.2386 125.739 80.2765 125.739 79.125C125.739 78.1553 125.917 77.3409 126.273 76.6818C126.629 76.0227 127.114 75.4924 127.727 75.0909C128.341 74.6894 129.038 74.3864 129.818 74.1818C130.606 73.9773 131.432 73.8333 132.295 73.75C133.311 73.6439 134.129 73.5455 134.75 73.4545C135.371 73.3561 135.822 73.2121 136.102 73.0227C136.383 72.8333 136.523 72.553 136.523 72.1818V72.1136C136.523 71.3939 136.295 70.8371 135.841 70.4432C135.394 70.0492 134.758 69.8523 133.932 69.8523C133.061 69.8523 132.367 70.0455 131.852 70.4318C131.337 70.8106 130.996 71.2879 130.83 71.8636L126.352 71.5C126.58 70.4394 127.027 69.5227 127.693 68.75C128.36 67.9697 129.22 67.3712 130.273 66.9545C131.333 66.5303 132.561 66.3182 133.955 66.3182C134.924 66.3182 135.852 66.4318 136.739 66.6591C137.633 66.8864 138.424 67.2386 139.114 67.7159C139.811 68.1932 140.36 68.8068 140.761 69.5568C141.163 70.2992 141.364 71.1894 141.364 72.2273V84H136.773V81.5795H136.636C136.356 82.125 135.981 82.6061 135.511 83.0227C135.042 83.4318 134.477 83.7538 133.818 83.9886C133.159 84.2159 132.398 84.3295 131.534 84.3295ZM132.92 80.9886C133.633 80.9886 134.261 80.8485 134.807 80.5682C135.352 80.2803 135.78 79.8939 136.091 79.4091C136.402 78.9242 136.557 78.375 136.557 77.7614V75.9091C136.405 76.0076 136.197 76.0985 135.932 76.1818C135.674 76.2576 135.383 76.3295 135.057 76.3977C134.731 76.4583 134.405 76.5152 134.08 76.5682C133.754 76.6136 133.458 76.6553 133.193 76.6932C132.625 76.7765 132.129 76.9091 131.705 77.0909C131.28 77.2727 130.951 77.5189 130.716 77.8295C130.481 78.1326 130.364 78.5114 130.364 78.9659C130.364 79.625 130.602 80.1288 131.08 80.4773C131.564 80.8182 132.178 80.9886 132.92 80.9886ZM145.119 84V66.5455H149.812V69.5909H149.994C150.313 68.5076 150.847 67.6894 151.597 67.1364C152.347 66.5758 153.21 66.2955 154.188 66.2955C154.43 66.2955 154.691 66.3106 154.972 66.3409C155.252 66.3712 155.498 66.4129 155.71 66.4659V70.7614C155.483 70.6932 155.169 70.6326 154.767 70.5795C154.366 70.5265 153.998 70.5 153.665 70.5C152.953 70.5 152.316 70.6553 151.756 70.9659C151.203 71.2689 150.763 71.6932 150.438 72.2386C150.119 72.7841 149.96 73.4129 149.96 74.125V84H145.119ZM161.733 90.5455C161.119 90.5455 160.544 90.4962 160.006 90.3977C159.475 90.3068 159.036 90.1894 158.688 90.0455L159.778 86.4318C160.347 86.6061 160.858 86.7008 161.312 86.7159C161.775 86.7311 162.172 86.625 162.506 86.3977C162.847 86.1705 163.123 85.7841 163.335 85.2386L163.619 84.5L157.358 66.5455H162.449L166.062 79.3636H166.244L169.892 66.5455H175.017L168.233 85.8864C167.907 86.8258 167.464 87.6439 166.903 88.3409C166.35 89.0455 165.65 89.5871 164.801 89.9659C163.953 90.3523 162.93 90.5455 161.733 90.5455Z" fill="black"/>
<path d="M210.409 84V81.9545L218.091 73.5455C218.992 72.5606 219.735 71.7045 220.318 70.9773C220.902 70.2424 221.333 69.553 221.614 68.9091C221.902 68.2576 222.045 67.5758 222.045 66.8636C222.045 66.0455 221.848 65.3371 221.455 64.7386C221.068 64.1402 220.538 63.678 219.864 63.3523C219.189 63.0265 218.432 62.8636 217.591 62.8636C216.697 62.8636 215.917 63.0492 215.25 63.4205C214.591 63.7841 214.08 64.2955 213.716 64.9545C213.36 65.6136 213.182 66.3864 213.182 67.2727H210.5C210.5 65.9091 210.814 64.7121 211.443 63.6818C212.072 62.6515 212.928 61.8485 214.011 61.2727C215.102 60.697 216.326 60.4091 217.682 60.4091C219.045 60.4091 220.254 60.697 221.307 61.2727C222.36 61.8485 223.186 62.625 223.784 63.6023C224.383 64.5795 224.682 65.6667 224.682 66.8636C224.682 67.7197 224.527 68.5568 224.216 69.375C223.913 70.1856 223.383 71.0909 222.625 72.0909C221.875 73.0833 220.833 74.2955 219.5 75.7273L214.273 81.3182V81.5H225.091V84H210.409ZM237.375 84.3182C235.663 84.3182 234.205 83.8523 233 82.9205C231.795 81.9811 230.875 80.6212 230.239 78.8409C229.602 77.053 229.284 74.8939 229.284 72.3636C229.284 69.8485 229.602 67.7008 230.239 65.9205C230.883 64.1326 231.807 62.7689 233.011 61.8295C234.223 60.8826 235.678 60.4091 237.375 60.4091C239.072 60.4091 240.523 60.8826 241.727 61.8295C242.939 62.7689 243.864 64.1326 244.5 65.9205C245.144 67.7008 245.466 69.8485 245.466 72.3636C245.466 74.8939 245.148 77.053 244.511 78.8409C243.875 80.6212 242.955 81.9811 241.75 82.9205C240.545 83.8523 239.087 84.3182 237.375 84.3182ZM237.375 81.8182C239.072 81.8182 240.39 81 241.33 79.3636C242.269 77.7273 242.739 75.3939 242.739 72.3636C242.739 70.3485 242.523 68.6326 242.091 67.2159C241.667 65.7992 241.053 64.7197 240.25 63.9773C239.455 63.2348 238.496 62.8636 237.375 62.8636C235.693 62.8636 234.379 63.6932 233.432 65.3523C232.485 67.0038 232.011 69.3409 232.011 72.3636C232.011 74.3788 232.223 76.0909 232.648 77.5C233.072 78.9091 233.682 79.9811 234.477 80.7159C235.28 81.4508 236.246 81.8182 237.375 81.8182ZM249.784 84V81.9545L257.466 73.5455C258.367 72.5606 259.11 71.7045 259.693 70.9773C260.277 70.2424 260.708 69.553 260.989 68.9091C261.277 68.2576 261.42 67.5758 261.42 66.8636C261.42 66.0455 261.223 65.3371 260.83 64.7386C260.443 64.1402 259.913 63.678 259.239 63.3523C258.564 63.0265 257.807 62.8636 256.966 62.8636C256.072 62.8636 255.292 63.0492 254.625 63.4205C253.966 63.7841 253.455 64.2955 253.091 64.9545C252.735 65.6136 252.557 66.3864 252.557 67.2727H249.875C249.875 65.9091 250.189 64.7121 250.818 63.6818C251.447 62.6515 252.303 61.8485 253.386 61.2727C254.477 60.697 255.701 60.4091 257.057 60.4091C258.42 60.4091 259.629 60.697 260.682 61.2727C261.735 61.8485 262.561 62.625 263.159 63.6023C263.758 64.5795 264.057 65.6667 264.057 66.8636C264.057 67.7197 263.902 68.5568 263.591 69.375C263.288 70.1856 262.758 71.0909 262 72.0909C261.25 73.0833 260.208 74.2955 258.875 75.7273L253.648 81.3182V81.5H264.466V84H249.784ZM277.341 60.7273V84H274.523V63.6818H274.386L268.705 67.4545V64.5909L274.523 60.7273H277.341Z" fill="black"/>
<path d="M554 58L538 72L554 86" stroke="black" stroke-width="5" stroke-linecap="round" stroke-linejoin="round"/>
<path d="M602 58L618 72L602 86" stroke="#333333" stroke-width="5" stroke-linecap="round" stroke-linejoin="round"/>
<path d="M57.2582 134.045H59.7809L65.7127 148.534H65.9173L71.8491 134.045H74.3718V151.5H72.3945V138.239H72.2241L66.7695 151.5H64.8604L59.4059 138.239H59.2354V151.5H57.2582V134.045ZM83.6552 151.773C82.4734 151.773 81.4364 151.491 80.5444 150.929C79.658 150.366 78.9648 149.58 78.4648 148.568C77.9705 147.557 77.7234 146.375 77.7234 145.023C77.7234 143.659 77.9705 142.469 78.4648 141.452C78.9648 140.435 79.658 139.645 80.5444 139.082C81.4364 138.52 82.4734 138.239 83.6552 138.239C84.837 138.239 85.8711 138.52 86.7575 139.082C87.6495 139.645 88.3427 140.435 88.837 141.452C89.337 142.469 89.587 143.659 89.587 145.023C89.587 146.375 89.337 147.557 88.837 148.568C88.3427 149.58 87.6495 150.366 86.7575 150.929C85.8711 151.491 84.837 151.773 83.6552 151.773ZM83.6552 149.966C84.5529 149.966 85.2915 149.736 85.8711 149.276C86.4506 148.815 86.8796 148.21 87.158 147.46C87.4364 146.71 87.5756 145.898 87.5756 145.023C87.5756 144.148 87.4364 143.332 87.158 142.577C86.8796 141.821 86.4506 141.21 85.8711 140.744C85.2915 140.278 84.5529 140.045 83.6552 140.045C82.7575 140.045 82.0188 140.278 81.4393 140.744C80.8597 141.21 80.4308 141.821 80.1523 142.577C79.8739 143.332 79.7347 144.148 79.7347 145.023C79.7347 145.898 79.8739 146.71 80.1523 147.46C80.4308 148.21 80.8597 148.815 81.4393 149.276C82.0188 149.736 82.7575 149.966 83.6552 149.966ZM94.6687 143.625V151.5H92.6573V138.409H94.6005V140.455H94.771C95.0778 139.79 95.5437 139.256 96.1687 138.852C96.7937 138.443 97.6005 138.239 98.5891 138.239C99.4755 138.239 100.251 138.42 100.916 138.784C101.581 139.142 102.098 139.688 102.467 140.42C102.836 141.148 103.021 142.068 103.021 143.182V151.5H101.01V143.318C101.01 142.29 100.743 141.489 100.208 140.915C99.6744 140.335 98.9414 140.045 98.0096 140.045C97.3675 140.045 96.7937 140.185 96.288 140.463C95.788 140.741 95.3931 141.148 95.1033 141.682C94.8136 142.216 94.6687 142.864 94.6687 143.625Z" fill="#AAAAAA"/>
<path d="M143.227 135.92V134.045H156.318V135.92H150.829V151.5H148.716V135.92H143.227ZM165.776 146.148V138.409H167.787V151.5H165.776V149.284H165.64C165.333 149.949 164.856 150.514 164.208 150.98C163.56 151.44 162.742 151.67 161.753 151.67C160.935 151.67 160.208 151.491 159.571 151.134C158.935 150.77 158.435 150.224 158.071 149.497C157.708 148.764 157.526 147.841 157.526 146.727V138.409H159.537V146.591C159.537 147.545 159.804 148.307 160.338 148.875C160.878 149.443 161.566 149.727 162.401 149.727C162.901 149.727 163.409 149.599 163.927 149.344C164.449 149.088 164.887 148.696 165.239 148.168C165.597 147.639 165.776 146.966 165.776 146.148ZM176.96 151.773C175.699 151.773 174.61 151.494 173.696 150.938C172.787 150.375 172.085 149.591 171.591 148.585C171.102 147.574 170.858 146.398 170.858 145.057C170.858 143.716 171.102 142.534 171.591 141.511C172.085 140.483 172.772 139.682 173.653 139.108C174.539 138.528 175.574 138.239 176.755 138.239C177.437 138.239 178.11 138.352 178.775 138.58C179.44 138.807 180.045 139.176 180.591 139.688C181.136 140.193 181.571 140.864 181.895 141.699C182.218 142.534 182.38 143.562 182.38 144.784V145.636H172.289V143.898H180.335C180.335 143.159 180.187 142.5 179.892 141.92C179.602 141.341 179.187 140.884 178.647 140.548C178.113 140.213 177.483 140.045 176.755 140.045C175.954 140.045 175.261 140.244 174.676 140.642C174.096 141.034 173.65 141.545 173.338 142.176C173.025 142.807 172.869 143.483 172.869 144.205V145.364C172.869 146.352 173.039 147.19 173.38 147.878C173.727 148.56 174.207 149.08 174.821 149.438C175.434 149.79 176.147 149.966 176.96 149.966C177.488 149.966 177.966 149.892 178.392 149.744C178.824 149.591 179.196 149.364 179.508 149.062C179.821 148.756 180.062 148.375 180.233 147.92L182.176 148.466C181.971 149.125 181.628 149.705 181.145 150.205C180.662 150.699 180.065 151.085 179.355 151.364C178.645 151.636 177.846 151.773 176.96 151.773Z" fill="#AAAAAA"/>
<path d="M225.732 151.5L220.959 134.045H223.107L226.755 148.261H226.925L230.641 134.045H233.027L236.743 148.261H236.914L240.561 134.045H242.709L237.936 151.5H235.755L231.902 137.591H231.766L227.914 151.5H225.732ZM249.34 151.773C248.078 151.773 246.99 151.494 246.076 150.938C245.167 150.375 244.465 149.591 243.97 148.585C243.482 147.574 243.238 146.398 243.238 145.057C243.238 143.716 243.482 142.534 243.97 141.511C244.465 140.483 245.152 139.682 246.033 139.108C246.919 138.528 247.953 138.239 249.135 138.239C249.817 138.239 250.49 138.352 251.155 138.58C251.82 138.807 252.425 139.176 252.97 139.688C253.516 140.193 253.951 140.864 254.274 141.699C254.598 142.534 254.76 143.562 254.76 144.784V145.636H244.669V143.898H252.715C252.715 143.159 252.567 142.5 252.272 141.92C251.982 141.341 251.567 140.884 251.027 140.548C250.493 140.213 249.863 140.045 249.135 140.045C248.334 140.045 247.641 140.244 247.056 140.642C246.476 141.034 246.03 141.545 245.718 142.176C245.405 142.807 245.249 143.483 245.249 144.205V145.364C245.249 146.352 245.419 147.19 245.76 147.878C246.107 148.56 246.587 149.08 247.201 149.438C247.814 149.79 248.527 149.966 249.34 149.966C249.868 149.966 250.345 149.892 250.772 149.744C251.203 149.591 251.576 149.364 251.888 149.062C252.201 148.756 252.442 148.375 252.613 147.92L254.556 148.466C254.351 149.125 254.007 149.705 253.524 150.205C253.042 150.699 252.445 151.085 251.735 151.364C251.024 151.636 250.226 151.773 249.34 151.773ZM262.763 151.773C261.672 151.773 260.709 151.497 259.874 150.946C259.039 150.389 258.385 149.605 257.914 148.594C257.442 147.577 257.206 146.375 257.206 144.989C257.206 143.614 257.442 142.42 257.914 141.409C258.385 140.398 259.042 139.616 259.882 139.065C260.723 138.514 261.695 138.239 262.797 138.239C263.649 138.239 264.323 138.381 264.817 138.665C265.317 138.943 265.698 139.261 265.959 139.619C266.226 139.972 266.434 140.261 266.581 140.489H266.752V134.045H268.763V151.5H266.82V149.489H266.581C266.434 149.727 266.223 150.028 265.951 150.392C265.678 150.75 265.289 151.071 264.783 151.355C264.277 151.634 263.604 151.773 262.763 151.773ZM263.036 149.966C263.843 149.966 264.524 149.756 265.081 149.335C265.638 148.909 266.061 148.321 266.351 147.571C266.641 146.815 266.786 145.943 266.786 144.955C266.786 143.977 266.644 143.122 266.36 142.389C266.076 141.651 265.655 141.077 265.098 140.668C264.542 140.253 263.854 140.045 263.036 140.045C262.184 140.045 261.473 140.264 260.905 140.702C260.343 141.134 259.919 141.722 259.635 142.466C259.357 143.205 259.218 144.034 259.218 144.955C259.218 145.886 259.36 146.733 259.644 147.494C259.934 148.25 260.36 148.852 260.922 149.301C261.49 149.744 262.195 149.966 263.036 149.966Z" fill="#AAAAAA"/>
<path d="M307.897 135.92V134.045H320.988V135.92H315.5V151.5H313.386V135.92H307.897ZM325.989 143.625V151.5H323.978V134.045H325.989V140.455H326.159C326.466 139.778 326.926 139.241 327.54 138.844C328.159 138.44 328.983 138.239 330.012 138.239C330.904 138.239 331.685 138.418 332.355 138.776C333.026 139.128 333.546 139.67 333.915 140.403C334.29 141.131 334.478 142.057 334.478 143.182V151.5H332.466V143.318C332.466 142.278 332.196 141.474 331.657 140.906C331.123 140.332 330.381 140.045 329.432 140.045C328.773 140.045 328.182 140.185 327.659 140.463C327.142 140.741 326.733 141.148 326.432 141.682C326.137 142.216 325.989 142.864 325.989 143.625ZM346.407 146.148V138.409H348.419V151.5H346.407V149.284H346.271C345.964 149.949 345.487 150.514 344.839 150.98C344.191 151.44 343.373 151.67 342.385 151.67C341.566 151.67 340.839 151.491 340.203 151.134C339.566 150.77 339.066 150.224 338.703 149.497C338.339 148.764 338.157 147.841 338.157 146.727V138.409H340.169V146.591C340.169 147.545 340.436 148.307 340.97 148.875C341.51 149.443 342.197 149.727 343.032 149.727C343.532 149.727 344.041 149.599 344.558 149.344C345.081 149.088 345.518 148.696 345.87 148.168C346.228 147.639 346.407 146.966 346.407 146.148Z" fill="#AAAAAA"/>
<path d="M399.162 151.5V134.045H409.628V135.92H401.276V141.818H408.844V143.693H401.276V151.5H399.162ZM412.835 151.5V138.409H414.778V140.386H414.914C415.153 139.739 415.585 139.213 416.21 138.81C416.835 138.406 417.539 138.205 418.323 138.205C418.471 138.205 418.656 138.207 418.877 138.213C419.099 138.219 419.266 138.227 419.38 138.239V140.284C419.312 140.267 419.156 140.241 418.911 140.207C418.673 140.168 418.42 140.148 418.153 140.148C417.516 140.148 416.948 140.281 416.448 140.548C415.954 140.81 415.562 141.173 415.272 141.639C414.988 142.099 414.846 142.625 414.846 143.216V151.5H412.835ZM421.764 151.5V138.409H423.776V151.5H421.764ZM422.787 136.227C422.395 136.227 422.057 136.094 421.773 135.827C421.494 135.56 421.355 135.239 421.355 134.864C421.355 134.489 421.494 134.168 421.773 133.901C422.057 133.634 422.395 133.5 422.787 133.5C423.179 133.5 423.514 133.634 423.793 133.901C424.077 134.168 424.219 134.489 424.219 134.864C424.219 135.239 424.077 135.56 423.793 135.827C423.514 136.094 423.179 136.227 422.787 136.227Z" fill="#AAAAAA"/>
<path d="M487.052 138.409C486.95 137.545 486.535 136.875 485.808 136.398C485.081 135.92 484.189 135.682 483.132 135.682C482.359 135.682 481.683 135.807 481.103 136.057C480.529 136.307 480.081 136.651 479.757 137.088C479.439 137.526 479.279 138.023 479.279 138.58C479.279 139.045 479.39 139.446 479.612 139.781C479.839 140.111 480.129 140.386 480.481 140.608C480.833 140.824 481.203 141.003 481.589 141.145C481.975 141.281 482.331 141.392 482.654 141.477L484.427 141.955C484.882 142.074 485.387 142.239 485.944 142.449C486.507 142.659 487.044 142.946 487.555 143.31C488.072 143.668 488.498 144.128 488.833 144.69C489.169 145.253 489.336 145.943 489.336 146.761C489.336 147.705 489.089 148.557 488.595 149.318C488.106 150.08 487.39 150.685 486.447 151.134C485.51 151.582 484.37 151.807 483.029 151.807C481.779 151.807 480.697 151.605 479.782 151.202C478.873 150.798 478.157 150.236 477.635 149.514C477.117 148.793 476.825 147.955 476.757 147H478.939C478.995 147.659 479.217 148.205 479.603 148.636C479.995 149.062 480.49 149.381 481.086 149.591C481.689 149.795 482.336 149.898 483.029 149.898C483.836 149.898 484.561 149.767 485.203 149.506C485.845 149.239 486.353 148.869 486.728 148.398C487.103 147.92 487.291 147.364 487.291 146.727C487.291 146.148 487.129 145.676 486.805 145.312C486.481 144.949 486.055 144.653 485.527 144.426C484.998 144.199 484.427 144 483.814 143.83L481.666 143.216C480.302 142.824 479.223 142.264 478.427 141.537C477.632 140.81 477.234 139.858 477.234 138.682C477.234 137.705 477.498 136.852 478.027 136.125C478.561 135.392 479.277 134.824 480.174 134.42C481.078 134.011 482.086 133.807 483.2 133.807C484.325 133.807 485.325 134.009 486.2 134.412C487.075 134.81 487.768 135.355 488.279 136.048C488.796 136.741 489.069 137.528 489.098 138.409H487.052ZM496.391 151.807C495.561 151.807 494.809 151.651 494.132 151.338C493.456 151.02 492.919 150.562 492.522 149.966C492.124 149.364 491.925 148.636 491.925 147.784C491.925 147.034 492.073 146.426 492.368 145.96C492.664 145.489 493.059 145.119 493.553 144.852C494.047 144.585 494.593 144.386 495.189 144.256C495.792 144.119 496.397 144.011 497.005 143.932C497.8 143.83 498.445 143.753 498.939 143.702C499.439 143.645 499.803 143.551 500.03 143.42C500.263 143.29 500.38 143.062 500.38 142.739V142.67C500.38 141.83 500.149 141.176 499.689 140.71C499.235 140.244 498.544 140.011 497.618 140.011C496.658 140.011 495.905 140.222 495.36 140.642C494.814 141.062 494.431 141.511 494.209 141.989L492.3 141.307C492.641 140.511 493.095 139.892 493.664 139.449C494.238 139 494.863 138.687 495.539 138.511C496.22 138.33 496.891 138.239 497.55 138.239C497.97 138.239 498.453 138.29 498.999 138.392C499.55 138.489 500.081 138.69 500.593 138.997C501.11 139.304 501.539 139.767 501.88 140.386C502.22 141.006 502.391 141.835 502.391 142.875V151.5H500.38V149.727H500.277C500.141 150.011 499.914 150.315 499.595 150.639C499.277 150.963 498.854 151.239 498.326 151.466C497.797 151.693 497.152 151.807 496.391 151.807ZM496.698 150C497.493 150 498.164 149.844 498.709 149.531C499.26 149.219 499.675 148.815 499.953 148.321C500.238 147.827 500.38 147.307 500.38 146.761V144.92C500.294 145.023 500.107 145.116 499.817 145.202C499.533 145.281 499.203 145.352 498.828 145.415C498.459 145.472 498.098 145.523 497.746 145.568C497.399 145.608 497.118 145.642 496.902 145.67C496.38 145.739 495.891 145.849 495.436 146.003C494.988 146.151 494.624 146.375 494.345 146.676C494.073 146.972 493.936 147.375 493.936 147.886C493.936 148.585 494.195 149.114 494.712 149.472C495.235 149.824 495.897 150 496.698 150ZM511.755 138.409V140.114H504.971V138.409H511.755ZM506.948 135.273H508.96V147.75C508.96 148.318 509.042 148.744 509.207 149.028C509.377 149.307 509.593 149.494 509.855 149.591C510.122 149.682 510.403 149.727 510.698 149.727C510.92 149.727 511.102 149.716 511.244 149.693C511.386 149.665 511.5 149.642 511.585 149.625L511.994 151.432C511.858 151.483 511.667 151.534 511.423 151.585C511.179 151.642 510.869 151.67 510.494 151.67C509.926 151.67 509.369 151.548 508.823 151.304C508.284 151.06 507.835 150.688 507.477 150.188C507.125 149.688 506.948 149.057 506.948 148.295V135.273Z" fill="#E03E0A"/>
<path d="M567.015 138.409C566.912 137.545 566.498 136.875 565.77 136.398C565.043 135.92 564.151 135.682 563.094 135.682C562.321 135.682 561.645 135.807 561.066 136.057C560.492 136.307 560.043 136.651 559.719 137.088C559.401 137.526 559.242 138.023 559.242 138.58C559.242 139.045 559.353 139.446 559.574 139.781C559.801 140.111 560.091 140.386 560.444 140.608C560.796 140.824 561.165 141.003 561.551 141.145C561.938 141.281 562.293 141.392 562.617 141.477L564.39 141.955C564.844 142.074 565.35 142.239 565.907 142.449C566.469 142.659 567.006 142.946 567.517 143.31C568.034 143.668 568.461 144.128 568.796 144.69C569.131 145.253 569.299 145.943 569.299 146.761C569.299 147.705 569.051 148.557 568.557 149.318C568.069 150.08 567.353 150.685 566.409 151.134C565.472 151.582 564.333 151.807 562.992 151.807C561.742 151.807 560.659 151.605 559.745 151.202C558.836 150.798 558.12 150.236 557.597 149.514C557.08 148.793 556.787 147.955 556.719 147H558.901C558.958 147.659 559.179 148.205 559.566 148.636C559.958 149.062 560.452 149.381 561.049 149.591C561.651 149.795 562.299 149.898 562.992 149.898C563.799 149.898 564.523 149.767 565.165 149.506C565.807 149.239 566.316 148.869 566.691 148.398C567.066 147.92 567.253 147.364 567.253 146.727C567.253 146.148 567.091 145.676 566.767 145.312C566.444 144.949 566.017 144.653 565.489 144.426C564.961 144.199 564.39 144 563.776 143.83L561.628 143.216C560.265 142.824 559.185 142.264 558.39 141.537C557.594 140.81 557.196 139.858 557.196 138.682C557.196 137.705 557.461 136.852 557.989 136.125C558.523 135.392 559.239 134.824 560.137 134.42C561.04 134.011 562.049 133.807 563.162 133.807C564.287 133.807 565.287 134.009 566.162 134.412C567.037 134.81 567.73 135.355 568.242 136.048C568.759 136.741 569.032 137.528 569.06 138.409H567.015ZM580.751 146.148V138.409H582.762V151.5H580.751V149.284H580.615C580.308 149.949 579.831 150.514 579.183 150.98C578.535 151.44 577.717 151.67 576.728 151.67C575.91 151.67 575.183 151.491 574.547 151.134C573.91 150.77 573.41 150.224 573.047 149.497C572.683 148.764 572.501 147.841 572.501 146.727V138.409H574.512V146.591C574.512 147.545 574.779 148.307 575.314 148.875C575.853 149.443 576.541 149.727 577.376 149.727C577.876 149.727 578.385 149.599 578.902 149.344C579.424 149.088 579.862 148.696 580.214 148.168C580.572 147.639 580.751 146.966 580.751 146.148ZM588.458 143.625V151.5H586.446V138.409H588.39V140.455H588.56C588.867 139.79 589.333 139.256 589.958 138.852C590.583 138.443 591.39 138.239 592.378 138.239C593.265 138.239 594.04 138.42 594.705 138.784C595.37 139.142 595.887 139.688 596.256 140.42C596.625 141.148 596.81 142.068 596.81 143.182V151.5H594.799V143.318C594.799 142.29 594.532 141.489 593.998 140.915C593.463 140.335 592.73 140.045 591.799 140.045C591.157 140.045 590.583 140.185 590.077 140.463C589.577 140.741 589.182 141.148 588.892 141.682C588.603 142.216 588.458 142.864 588.458 143.625Z" fill="#E03E0A"/>
<path d="M65.9226 208.5V205.841L72.1357 200.088C72.6641 199.577 73.1072 199.116 73.4652 198.707C73.8288 198.298 74.1044 197.898 74.2919 197.506C74.4794 197.108 74.5732 196.679 74.5732 196.219C74.5732 195.707 74.4567 195.267 74.2237 194.898C73.9908 194.523 73.6726 194.236 73.2692 194.037C72.8658 193.832 72.4084 193.73 71.897 193.73C71.3629 193.73 70.897 193.838 70.4993 194.054C70.1016 194.27 69.7947 194.58 69.5788 194.983C69.3629 195.386 69.255 195.866 69.255 196.423H65.7521C65.7521 195.281 66.0107 194.29 66.5277 193.449C67.0447 192.608 67.7692 191.957 68.701 191.497C69.6328 191.037 70.7067 190.807 71.9226 190.807C73.1726 190.807 74.2607 191.028 75.1868 191.472C76.1186 191.909 76.843 192.517 77.3601 193.295C77.8771 194.074 78.1357 194.966 78.1357 195.972C78.1357 196.631 78.005 197.281 77.7436 197.923C77.4879 198.565 77.0305 199.278 76.3714 200.062C75.7124 200.841 74.7834 201.776 73.5845 202.866L71.0362 205.364V205.483H78.3658V208.5H65.9226ZM87.5511 208.739C86.2386 208.739 85.071 208.526 84.0483 208.099C83.0313 207.668 82.233 207.08 81.6534 206.335C81.0739 205.591 80.7841 204.747 80.7841 203.804C80.7841 203.077 80.9489 202.409 81.2784 201.801C81.6136 201.188 82.0682 200.679 82.642 200.276C83.2159 199.866 83.858 199.605 84.5682 199.491V199.372C83.6364 199.185 82.8807 198.733 82.3011 198.017C81.7216 197.295 81.4318 196.457 81.4318 195.503C81.4318 194.599 81.696 193.795 82.2244 193.091C82.7528 192.381 83.4773 191.824 84.3977 191.42C85.3239 191.011 86.375 190.807 87.5511 190.807C88.7273 190.807 89.7756 191.011 90.696 191.42C91.6222 191.83 92.3494 192.389 92.8778 193.099C93.4063 193.804 93.6733 194.605 93.679 195.503C93.6733 196.463 93.3778 197.301 92.7926 198.017C92.2074 198.733 91.4574 199.185 90.5426 199.372V199.491C91.2415 199.605 91.875 199.866 92.4432 200.276C93.017 200.679 93.4716 201.188 93.8068 201.801C94.1477 202.409 94.321 203.077 94.3267 203.804C94.321 204.747 94.0284 205.591 93.4489 206.335C92.8693 207.08 92.0682 207.668 91.0455 208.099C90.0284 208.526 88.8636 208.739 87.5511 208.739ZM87.5511 206.028C88.1364 206.028 88.6477 205.923 89.0852 205.713C89.5227 205.497 89.8636 205.202 90.108 204.827C90.358 204.446 90.483 204.009 90.483 203.514C90.483 203.009 90.3551 202.562 90.0994 202.176C89.8438 201.784 89.4972 201.477 89.0597 201.256C88.6222 201.028 88.1193 200.915 87.5511 200.915C86.9886 200.915 86.4858 201.028 86.0426 201.256C85.5994 201.477 85.25 201.784 84.9943 202.176C84.7443 202.562 84.6193 203.009 84.6193 203.514C84.6193 204.009 84.7415 204.446 84.9858 204.827C85.2301 205.202 85.5739 205.497 86.017 205.713C86.4602 205.923 86.9716 206.028 87.5511 206.028ZM87.5511 198.23C88.0398 198.23 88.4744 198.131 88.8551 197.932C89.2358 197.733 89.5341 197.457 89.75 197.105C89.9659 196.753 90.0739 196.347 90.0739 195.886C90.0739 195.432 89.9659 195.034 89.75 194.693C89.5341 194.347 89.2386 194.077 88.8636 193.884C88.4886 193.685 88.0511 193.585 87.5511 193.585C87.0568 193.585 86.6193 193.685 86.2386 193.884C85.858 194.077 85.5597 194.347 85.3438 194.693C85.1335 195.034 85.0284 195.432 85.0284 195.886C85.0284 196.347 85.1364 196.753 85.3523 197.105C85.5682 197.457 85.8665 197.733 86.2472 197.932C86.6278 198.131 87.0625 198.23 87.5511 198.23Z" fill="#AAAAAA"/>
<path d="M148.768 208.5V205.841L154.981 200.088C155.509 199.577 155.952 199.116 156.31 198.707C156.674 198.298 156.95 197.898 157.137 197.506C157.325 197.108 157.418 196.679 157.418 196.219C157.418 195.707 157.302 195.267 157.069 194.898C156.836 194.523 156.518 194.236 156.114 194.037C155.711 193.832 155.254 193.73 154.742 193.73C154.208 193.73 153.742 193.838 153.345 194.054C152.947 194.27 152.64 194.58 152.424 194.983C152.208 195.386 152.1 195.866 152.1 196.423H148.597C148.597 195.281 148.856 194.29 149.373 193.449C149.89 192.608 150.614 191.957 151.546 191.497C152.478 191.037 153.552 190.807 154.768 190.807C156.018 190.807 157.106 191.028 158.032 191.472C158.964 191.909 159.688 192.517 160.205 193.295C160.722 194.074 160.981 194.966 160.981 195.972C160.981 196.631 160.85 197.281 160.589 197.923C160.333 198.565 159.876 199.278 159.217 200.062C158.558 200.841 157.629 201.776 156.43 202.866L153.881 205.364V205.483H161.211V208.5H148.768ZM170.2 190.807C171.098 190.807 171.962 190.957 172.791 191.259C173.626 191.56 174.371 192.04 175.024 192.699C175.683 193.358 176.203 194.233 176.584 195.324C176.97 196.409 177.166 197.741 177.172 199.321C177.172 200.804 177.004 202.128 176.669 203.293C176.34 204.452 175.865 205.438 175.246 206.25C174.626 207.062 173.879 207.682 173.004 208.108C172.129 208.528 171.152 208.739 170.072 208.739C168.908 208.739 167.879 208.514 166.987 208.065C166.095 207.611 165.376 206.994 164.831 206.216C164.291 205.432 163.965 204.551 163.851 203.574H167.49C167.632 204.21 167.93 204.705 168.385 205.057C168.84 205.403 169.402 205.577 170.072 205.577C171.209 205.577 172.072 205.082 172.663 204.094C173.254 203.099 173.553 201.739 173.558 200.011H173.439C173.178 200.523 172.825 200.963 172.382 201.332C171.939 201.696 171.43 201.977 170.857 202.176C170.288 202.375 169.683 202.474 169.041 202.474C168.013 202.474 167.095 202.233 166.288 201.75C165.482 201.267 164.845 200.602 164.379 199.756C163.913 198.909 163.68 197.943 163.68 196.858C163.675 195.688 163.945 194.645 164.49 193.73C165.036 192.815 165.797 192.099 166.774 191.582C167.757 191.06 168.899 190.801 170.2 190.807ZM170.226 193.705C169.652 193.705 169.141 193.841 168.692 194.114C168.249 194.386 167.896 194.753 167.635 195.213C167.379 195.673 167.254 196.187 167.26 196.756C167.26 197.33 167.385 197.847 167.635 198.307C167.891 198.761 168.237 199.125 168.675 199.398C169.118 199.665 169.624 199.798 170.192 199.798C170.618 199.798 171.013 199.719 171.376 199.56C171.74 199.401 172.055 199.182 172.322 198.903C172.595 198.619 172.808 198.293 172.962 197.923C173.115 197.554 173.192 197.162 173.192 196.747C173.186 196.196 173.055 195.69 172.8 195.23C172.544 194.77 172.192 194.401 171.743 194.122C171.294 193.844 170.788 193.705 170.226 193.705Z" fill="#AAAAAA"/>
<path d="M237.361 208.739C236.088 208.739 234.955 208.52 233.961 208.082C232.972 207.639 232.191 207.031 231.617 206.259C231.049 205.48 230.756 204.582 230.739 203.565H234.455C234.478 203.991 234.617 204.366 234.872 204.69C235.134 205.009 235.48 205.256 235.912 205.432C236.344 205.608 236.83 205.696 237.37 205.696C237.932 205.696 238.429 205.597 238.861 205.398C239.293 205.199 239.631 204.923 239.875 204.571C240.12 204.219 240.242 203.812 240.242 203.352C240.242 202.886 240.111 202.474 239.85 202.116C239.594 201.753 239.225 201.469 238.742 201.264C238.265 201.06 237.696 200.957 237.037 200.957H235.409V198.247H237.037C237.594 198.247 238.086 198.151 238.512 197.957C238.943 197.764 239.279 197.497 239.517 197.156C239.756 196.81 239.875 196.406 239.875 195.946C239.875 195.509 239.77 195.125 239.56 194.795C239.355 194.46 239.066 194.199 238.691 194.011C238.321 193.824 237.89 193.73 237.395 193.73C236.895 193.73 236.438 193.821 236.023 194.003C235.608 194.179 235.276 194.432 235.026 194.761C234.776 195.091 234.642 195.477 234.625 195.92H231.088C231.105 194.915 231.392 194.028 231.949 193.261C232.506 192.494 233.256 191.895 234.199 191.463C235.148 191.026 236.219 190.807 237.412 190.807C238.617 190.807 239.671 191.026 240.574 191.463C241.478 191.901 242.179 192.491 242.679 193.236C243.185 193.974 243.435 194.804 243.429 195.724C243.435 196.702 243.131 197.517 242.517 198.17C241.909 198.824 241.117 199.239 240.14 199.415V199.551C241.424 199.716 242.401 200.162 243.071 200.889C243.747 201.611 244.083 202.514 244.077 203.599C244.083 204.594 243.796 205.477 243.216 206.25C242.642 207.023 241.85 207.631 240.838 208.074C239.827 208.517 238.668 208.739 237.361 208.739ZM253.573 208.884C252.108 208.878 250.846 208.517 249.789 207.801C248.738 207.085 247.929 206.048 247.36 204.69C246.798 203.332 246.519 201.699 246.525 199.79C246.525 197.886 246.806 196.264 247.369 194.923C247.937 193.582 248.747 192.562 249.798 191.864C250.855 191.159 252.113 190.807 253.573 190.807C255.034 190.807 256.289 191.159 257.341 191.864C258.397 192.568 259.21 193.591 259.778 194.932C260.346 196.267 260.627 197.886 260.622 199.79C260.622 201.705 260.338 203.341 259.769 204.699C259.207 206.057 258.4 207.094 257.349 207.81C256.298 208.526 255.039 208.884 253.573 208.884ZM253.573 205.824C254.573 205.824 255.372 205.321 255.968 204.315C256.565 203.31 256.86 201.801 256.855 199.79C256.855 198.466 256.718 197.364 256.446 196.483C256.179 195.602 255.798 194.94 255.304 194.497C254.815 194.054 254.238 193.832 253.573 193.832C252.579 193.832 251.784 194.33 251.187 195.324C250.591 196.318 250.289 197.807 250.284 199.79C250.284 201.131 250.417 202.25 250.684 203.148C250.957 204.04 251.341 204.71 251.835 205.159C252.329 205.602 252.909 205.824 253.573 205.824Z" fill="#AAAAAA"/>
<path d="M322.585 208.739C321.313 208.739 320.179 208.52 319.185 208.082C318.196 207.639 317.415 207.031 316.841 206.259C316.273 205.48 315.98 204.582 315.963 203.565H319.679C319.702 203.991 319.841 204.366 320.097 204.69C320.358 205.009 320.705 205.256 321.136 205.432C321.568 205.608 322.054 205.696 322.594 205.696C323.156 205.696 323.653 205.597 324.085 205.398C324.517 205.199 324.855 204.923 325.099 204.571C325.344 204.219 325.466 203.812 325.466 203.352C325.466 202.886 325.335 202.474 325.074 202.116C324.818 201.753 324.449 201.469 323.966 201.264C323.489 201.06 322.92 200.957 322.261 200.957H320.634V198.247H322.261C322.818 198.247 323.31 198.151 323.736 197.957C324.168 197.764 324.503 197.497 324.741 197.156C324.98 196.81 325.099 196.406 325.099 195.946C325.099 195.509 324.994 195.125 324.784 194.795C324.58 194.46 324.29 194.199 323.915 194.011C323.545 193.824 323.114 193.73 322.619 193.73C322.119 193.73 321.662 193.821 321.247 194.003C320.832 194.179 320.5 194.432 320.25 194.761C320 195.091 319.866 195.477 319.849 195.92H316.312C316.33 194.915 316.616 194.028 317.173 193.261C317.73 192.494 318.48 191.895 319.423 191.463C320.372 191.026 321.443 190.807 322.636 190.807C323.841 190.807 324.895 191.026 325.798 191.463C326.702 191.901 327.403 192.491 327.903 193.236C328.409 193.974 328.659 194.804 328.653 195.724C328.659 196.702 328.355 197.517 327.741 198.17C327.134 198.824 326.341 199.239 325.364 199.415V199.551C326.648 199.716 327.625 200.162 328.295 200.889C328.972 201.611 329.307 202.514 329.301 203.599C329.307 204.594 329.02 205.477 328.44 206.25C327.866 207.023 327.074 207.631 326.062 208.074C325.051 208.517 323.892 208.739 322.585 208.739ZM339.548 191.045V208.5H335.857V194.548H335.755L331.758 197.054V193.781L336.079 191.045H339.548Z" fill="#AAAAAA"/>
<path d="M405.459 208.884C403.993 208.878 402.732 208.517 401.675 207.801C400.624 207.085 399.814 206.048 399.246 204.69C398.684 203.332 398.405 201.699 398.411 199.79C398.411 197.886 398.692 196.264 399.255 194.923C399.823 193.582 400.633 192.562 401.684 191.864C402.74 191.159 403.999 190.807 405.459 190.807C406.919 190.807 408.175 191.159 409.226 191.864C410.283 192.568 411.096 193.591 411.664 194.932C412.232 196.267 412.513 197.886 412.508 199.79C412.508 201.705 412.223 203.341 411.655 204.699C411.093 206.057 410.286 207.094 409.235 207.81C408.184 208.526 406.925 208.884 405.459 208.884ZM405.459 205.824C406.459 205.824 407.258 205.321 407.854 204.315C408.451 203.31 408.746 201.801 408.74 199.79C408.74 198.466 408.604 197.364 408.331 196.483C408.064 195.602 407.684 194.94 407.189 194.497C406.701 194.054 406.124 193.832 405.459 193.832C404.465 193.832 403.669 194.33 403.073 195.324C402.476 196.318 402.175 197.807 402.169 199.79C402.169 201.131 402.303 202.25 402.57 203.148C402.843 204.04 403.226 204.71 403.721 205.159C404.215 205.602 404.794 205.824 405.459 205.824ZM422.733 191.045V208.5H419.042V194.548H418.94L414.943 197.054V193.781L419.264 191.045H422.733Z" fill="#333333"/>
<path d="M486.605 208.884C485.139 208.878 483.877 208.517 482.821 207.801C481.769 207.085 480.96 206.048 480.392 204.69C479.829 203.332 479.551 201.699 479.556 199.79C479.556 197.886 479.838 196.264 480.4 194.923C480.968 193.582 481.778 192.562 482.829 191.864C483.886 191.159 485.144 190.807 486.605 190.807C488.065 190.807 489.321 191.159 490.372 191.864C491.429 192.568 492.241 193.591 492.809 194.932C493.377 196.267 493.659 197.886 493.653 199.79C493.653 201.705 493.369 203.341 492.801 204.699C492.238 206.057 491.431 207.094 490.38 207.81C489.329 208.526 488.071 208.884 486.605 208.884ZM486.605 205.824C487.605 205.824 488.403 205.321 489 204.315C489.596 203.31 489.892 201.801 489.886 199.79C489.886 198.466 489.75 197.364 489.477 196.483C489.21 195.602 488.829 194.94 488.335 194.497C487.846 194.054 487.269 193.832 486.605 193.832C485.61 193.832 484.815 194.33 484.218 195.324C483.622 196.318 483.321 197.807 483.315 199.79C483.315 201.131 483.448 202.25 483.716 203.148C483.988 204.04 484.372 204.71 484.866 205.159C485.36 205.602 485.94 205.824 486.605 205.824ZM496.284 208.5V205.841L502.497 200.088C503.026 199.577 503.469 199.116 503.827 198.707C504.191 198.298 504.466 197.898 504.654 197.506C504.841 197.108 504.935 196.679 504.935 196.219C504.935 195.707 504.818 195.267 504.586 194.898C504.353 194.523 504.034 194.236 503.631 194.037C503.228 193.832 502.77 193.73 502.259 193.73C501.725 193.73 501.259 193.838 500.861 194.054C500.463 194.27 500.157 194.58 499.941 194.983C499.725 195.386 499.617 195.866 499.617 196.423H496.114C496.114 195.281 496.372 194.29 496.89 193.449C497.407 192.608 498.131 191.957 499.063 191.497C499.995 191.037 501.068 190.807 502.284 190.807C503.534 190.807 504.622 191.028 505.549 191.472C506.48 191.909 507.205 192.517 507.722 193.295C508.239 194.074 508.497 194.966 508.497 195.972C508.497 196.631 508.367 197.281 508.105 197.923C507.85 198.565 507.392 199.278 506.733 200.062C506.074 200.841 505.145 201.776 503.946 202.866L501.398 205.364V205.483H508.728V208.5H496.284Z" fill="#E03E0A"/>
<path d="M569.087 208.884C567.621 208.878 566.359 208.517 565.303 207.801C564.251 207.085 563.442 206.048 562.874 204.69C562.311 203.332 562.033 201.699 562.038 199.79C562.038 197.886 562.32 196.264 562.882 194.923C563.45 193.582 564.26 192.562 565.311 191.864C566.368 191.159 567.626 190.807 569.087 190.807C570.547 190.807 571.803 191.159 572.854 191.864C573.911 192.568 574.723 193.591 575.291 194.932C575.859 196.267 576.141 197.886 576.135 199.79C576.135 201.705 575.851 203.341 575.283 204.699C574.72 206.057 573.913 207.094 572.862 207.81C571.811 208.526 570.553 208.884 569.087 208.884ZM569.087 205.824C570.087 205.824 570.885 205.321 571.482 204.315C572.078 203.31 572.374 201.801 572.368 199.79C572.368 198.466 572.232 197.364 571.959 196.483C571.692 195.602 571.311 194.94 570.817 194.497C570.328 194.054 569.751 193.832 569.087 193.832C568.092 193.832 567.297 194.33 566.7 195.324C566.104 196.318 565.803 197.807 565.797 199.79C565.797 201.131 565.93 202.25 566.197 203.148C566.47 204.04 566.854 204.71 567.348 205.159C567.842 205.602 568.422 205.824 569.087 205.824ZM585.218 208.739C583.945 208.739 582.812 208.52 581.817 208.082C580.829 207.639 580.048 207.031 579.474 206.259C578.906 205.48 578.613 204.582 578.596 203.565H582.312C582.335 203.991 582.474 204.366 582.729 204.69C582.991 205.009 583.337 205.256 583.769 205.432C584.201 205.608 584.687 205.696 585.227 205.696C585.789 205.696 586.286 205.597 586.718 205.398C587.15 205.199 587.488 204.923 587.732 204.571C587.977 204.219 588.099 203.812 588.099 203.352C588.099 202.886 587.968 202.474 587.707 202.116C587.451 201.753 587.082 201.469 586.599 201.264C586.121 201.06 585.553 200.957 584.894 200.957H583.266V198.247H584.894C585.451 198.247 585.942 198.151 586.369 197.957C586.8 197.764 587.136 197.497 587.374 197.156C587.613 196.81 587.732 196.406 587.732 195.946C587.732 195.509 587.627 195.125 587.417 194.795C587.212 194.46 586.923 194.199 586.548 194.011C586.178 193.824 585.746 193.73 585.252 193.73C584.752 193.73 584.295 193.821 583.88 194.003C583.465 194.179 583.133 194.432 582.883 194.761C582.633 195.091 582.499 195.477 582.482 195.92H578.945C578.962 194.915 579.249 194.028 579.806 193.261C580.363 192.494 581.113 191.895 582.056 191.463C583.005 191.026 584.076 190.807 585.269 190.807C586.474 190.807 587.528 191.026 588.431 191.463C589.335 191.901 590.036 192.491 590.536 193.236C591.042 193.974 591.292 194.804 591.286 195.724C591.292 196.702 590.988 197.517 590.374 198.17C589.766 198.824 588.974 199.239 587.996 199.415V199.551C589.281 199.716 590.258 200.162 590.928 200.889C591.604 201.611 591.94 202.514 591.934 203.599C591.94 204.594 591.653 205.477 591.073 206.25C590.499 207.023 589.707 207.631 588.695 208.074C587.684 208.517 586.525 208.739 585.218 208.739Z" fill="#E03E0A"/>
<path d="M71.864 265.884C70.3981 265.878 69.1367 265.517 68.0799 264.801C67.0288 264.085 66.2191 263.048 65.6509 261.69C65.0884 260.332 64.81 258.699 64.8157 256.79C64.8157 254.886 65.0969 253.264 65.6594 251.923C66.2276 250.582 67.0373 249.562 68.0884 248.864C69.1452 248.159 70.4038 247.807 71.864 247.807C73.3242 247.807 74.5799 248.159 75.631 248.864C76.6879 249.568 77.5004 250.591 78.0685 251.932C78.6367 253.267 78.918 254.886 78.9123 256.79C78.9123 258.705 78.6282 260.341 78.06 261.699C77.4975 263.057 76.6907 264.094 75.6396 264.81C74.5884 265.526 73.3299 265.884 71.864 265.884ZM71.864 262.824C72.864 262.824 73.6623 262.321 74.2589 261.315C74.8555 260.31 75.1509 258.801 75.1452 256.79C75.1452 255.466 75.0089 254.364 74.7362 253.483C74.4691 252.602 74.0884 251.94 73.5941 251.497C73.1055 251.054 72.5288 250.832 71.864 250.832C70.8697 250.832 70.0742 251.33 69.4776 252.324C68.881 253.318 68.5799 254.807 68.5742 256.79C68.5742 258.131 68.7077 259.25 68.9748 260.148C69.2475 261.04 69.631 261.71 70.1254 262.159C70.6197 262.602 71.1992 262.824 71.864 262.824ZM81.2795 262.432V259.526L88.5664 248.045H91.0721V252.068H89.5891L84.9954 259.338V259.474H95.3505V262.432H81.2795ZM89.6573 265.5V261.545L89.7255 260.259V248.045H93.1857V265.5H89.6573Z" fill="#333333"/>
<path d="M155.096 265.884C153.63 265.878 152.369 265.517 151.312 264.801C150.261 264.085 149.451 263.048 148.883 261.69C148.32 260.332 148.042 258.699 148.048 256.79C148.048 254.886 148.329 253.264 148.891 251.923C149.46 250.582 150.269 249.562 151.32 248.864C152.377 248.159 153.636 247.807 155.096 247.807C156.556 247.807 157.812 248.159 158.863 248.864C159.92 249.568 160.732 250.591 161.3 251.932C161.869 253.267 162.15 254.886 162.144 256.79C162.144 258.705 161.86 260.341 161.292 261.699C160.729 263.057 159.923 264.094 158.871 264.81C157.82 265.526 156.562 265.884 155.096 265.884ZM155.096 262.824C156.096 262.824 156.894 262.321 157.491 261.315C158.087 260.31 158.383 258.801 158.377 256.79C158.377 255.466 158.241 254.364 157.968 253.483C157.701 252.602 157.32 251.94 156.826 251.497C156.337 251.054 155.761 250.832 155.096 250.832C154.102 250.832 153.306 251.33 152.71 252.324C152.113 253.318 151.812 254.807 151.806 256.79C151.806 258.131 151.94 259.25 152.207 260.148C152.479 261.04 152.863 261.71 153.357 262.159C153.852 262.602 154.431 262.824 155.096 262.824ZM171.151 265.739C169.946 265.739 168.872 265.517 167.929 265.074C166.992 264.631 166.247 264.02 165.696 263.241C165.145 262.463 164.858 261.571 164.835 260.565H168.415C168.455 261.241 168.739 261.79 169.267 262.21C169.795 262.631 170.423 262.841 171.151 262.841C171.73 262.841 172.242 262.713 172.685 262.457C173.134 262.196 173.483 261.835 173.733 261.375C173.989 260.909 174.117 260.375 174.117 259.773C174.117 259.159 173.986 258.619 173.724 258.153C173.469 257.687 173.114 257.324 172.659 257.062C172.205 256.801 171.685 256.668 171.099 256.662C170.588 256.662 170.091 256.767 169.608 256.977C169.131 257.187 168.759 257.474 168.492 257.838L165.21 257.25L166.037 248.045H176.707V251.062H169.08L168.628 255.435H168.73C169.037 255.003 169.5 254.645 170.119 254.361C170.739 254.077 171.432 253.935 172.199 253.935C173.25 253.935 174.188 254.182 175.011 254.676C175.835 255.17 176.486 255.849 176.963 256.713C177.44 257.571 177.676 258.56 177.67 259.679C177.676 260.855 177.403 261.901 176.852 262.815C176.307 263.724 175.543 264.44 174.56 264.963C173.582 265.48 172.446 265.739 171.151 265.739Z" fill="#333333"/>
<path d="M237.741 265.884C236.276 265.878 235.014 265.517 233.957 264.801C232.906 264.085 232.097 263.048 231.528 261.69C230.966 260.332 230.687 258.699 230.693 256.79C230.693 254.886 230.974 253.264 231.537 251.923C232.105 250.582 232.915 249.562 233.966 248.864C235.023 248.159 236.281 247.807 237.741 247.807C239.202 247.807 240.457 248.159 241.508 248.864C242.565 249.568 243.378 250.591 243.946 251.932C244.514 253.267 244.795 254.886 244.79 256.79C244.79 258.705 244.506 260.341 243.937 261.699C243.375 263.057 242.568 264.094 241.517 264.81C240.466 265.526 239.207 265.884 237.741 265.884ZM237.741 262.824C238.741 262.824 239.54 262.321 240.136 261.315C240.733 260.31 241.028 258.801 241.023 256.79C241.023 255.466 240.886 254.364 240.614 253.483C240.347 252.602 239.966 251.94 239.472 251.497C238.983 251.054 238.406 250.832 237.741 250.832C236.747 250.832 235.952 251.33 235.355 252.324C234.758 253.318 234.457 254.807 234.452 256.79C234.452 258.131 234.585 259.25 234.852 260.148C235.125 261.04 235.508 261.71 236.003 262.159C236.497 262.602 237.077 262.824 237.741 262.824ZM254.12 265.739C253.222 265.733 252.356 265.582 251.521 265.287C250.691 264.991 249.947 264.511 249.288 263.847C248.629 263.182 248.106 262.301 247.719 261.205C247.339 260.108 247.148 258.761 247.148 257.165C247.154 255.699 247.322 254.389 247.651 253.236C247.986 252.077 248.464 251.094 249.083 250.287C249.708 249.48 250.455 248.866 251.325 248.446C252.194 248.02 253.168 247.807 254.248 247.807C255.413 247.807 256.441 248.034 257.333 248.489C258.225 248.937 258.941 249.548 259.481 250.321C260.026 251.094 260.356 251.96 260.469 252.92H256.83C256.688 252.312 256.39 251.835 255.935 251.489C255.481 251.142 254.918 250.969 254.248 250.969C253.111 250.969 252.248 251.463 251.657 252.452C251.072 253.44 250.773 254.784 250.762 256.483H250.881C251.143 255.966 251.495 255.526 251.938 255.162C252.387 254.793 252.896 254.511 253.464 254.318C254.038 254.119 254.643 254.02 255.279 254.02C256.313 254.02 257.234 254.264 258.04 254.753C258.847 255.236 259.484 255.901 259.95 256.747C260.415 257.594 260.648 258.562 260.648 259.653C260.648 260.835 260.373 261.886 259.822 262.807C259.276 263.727 258.512 264.449 257.529 264.972C256.552 265.489 255.415 265.744 254.12 265.739ZM254.103 262.841C254.671 262.841 255.18 262.705 255.629 262.432C256.077 262.159 256.43 261.79 256.685 261.324C256.941 260.858 257.069 260.335 257.069 259.756C257.069 259.176 256.941 258.656 256.685 258.196C256.435 257.736 256.089 257.369 255.646 257.097C255.202 256.824 254.697 256.688 254.129 256.688C253.702 256.688 253.307 256.767 252.944 256.926C252.586 257.085 252.271 257.307 251.998 257.591C251.731 257.875 251.521 258.205 251.367 258.58C251.214 258.949 251.137 259.344 251.137 259.764C251.137 260.327 251.265 260.841 251.521 261.307C251.782 261.773 252.134 262.145 252.577 262.423C253.026 262.702 253.535 262.841 254.103 262.841Z" fill="black"/>
<path d="M321.594 265.884C320.129 265.878 318.867 265.517 317.81 264.801C316.759 264.085 315.95 263.048 315.381 261.69C314.819 260.332 314.54 258.699 314.546 256.79C314.546 254.886 314.827 253.264 315.39 251.923C315.958 250.582 316.768 249.562 317.819 248.864C318.876 248.159 320.134 247.807 321.594 247.807C323.055 247.807 324.31 248.159 325.362 248.864C326.418 249.568 327.231 250.591 327.799 251.932C328.367 253.267 328.648 254.886 328.643 256.79C328.643 258.705 328.359 260.341 327.79 261.699C327.228 263.057 326.421 264.094 325.37 264.81C324.319 265.526 323.06 265.884 321.594 265.884ZM321.594 262.824C322.594 262.824 323.393 262.321 323.989 261.315C324.586 260.31 324.881 258.801 324.876 256.79C324.876 255.466 324.739 254.364 324.467 253.483C324.2 252.602 323.819 251.94 323.325 251.497C322.836 251.054 322.259 250.832 321.594 250.832C320.6 250.832 319.805 251.33 319.208 252.324C318.612 253.318 318.31 254.807 318.305 256.79C318.305 258.131 318.438 259.25 318.705 260.148C318.978 261.04 319.362 261.71 319.856 262.159C320.35 262.602 320.93 262.824 321.594 262.824ZM331.496 265.5L338.732 251.182V251.062H330.303V248.045H342.55V251.105L335.305 265.5H331.496Z" fill="#333333"/>
<rect x="379.333" y="224.5" width="64" height="64" rx="32" fill="#ABD773"/>
<rect x="379.333" y="224.5" width="64" height="64" rx="32" fill="#77BA22"/>
<path d="M403.397 265.884C401.931 265.878 400.669 265.517 399.613 264.801C398.561 264.085 397.752 263.048 397.184 261.69C396.621 260.332 396.343 258.699 396.348 256.79C396.348 254.886 396.63 253.264 397.192 251.923C397.76 250.582 398.57 249.562 399.621 248.864C400.678 248.159 401.936 247.807 403.397 247.807C404.857 247.807 406.113 248.159 407.164 248.864C408.221 249.568 409.033 250.591 409.601 251.932C410.169 253.267 410.451 254.886 410.445 256.79C410.445 258.705 410.161 260.341 409.593 261.699C409.03 263.057 408.223 264.094 407.172 264.81C406.121 265.526 404.863 265.884 403.397 265.884ZM403.397 262.824C404.397 262.824 405.195 262.321 405.792 261.315C406.388 260.31 406.684 258.801 406.678 256.79C406.678 255.466 406.542 254.364 406.269 253.483C406.002 252.602 405.621 251.94 405.127 251.497C404.638 251.054 404.061 250.832 403.397 250.832C402.402 250.832 401.607 251.33 401.01 252.324C400.414 253.318 400.113 254.807 400.107 256.79C400.107 258.131 400.24 259.25 400.508 260.148C400.78 261.04 401.164 261.71 401.658 262.159C402.152 262.602 402.732 262.824 403.397 262.824ZM419.588 265.739C418.275 265.739 417.108 265.526 416.085 265.099C415.068 264.668 414.27 264.08 413.69 263.335C413.11 262.591 412.821 261.747 412.821 260.804C412.821 260.077 412.985 259.409 413.315 258.801C413.65 258.188 414.105 257.679 414.679 257.276C415.253 256.866 415.895 256.605 416.605 256.491V256.372C415.673 256.185 414.917 255.733 414.338 255.017C413.758 254.295 413.468 253.457 413.468 252.503C413.468 251.599 413.733 250.795 414.261 250.091C414.789 249.381 415.514 248.824 416.434 248.42C417.36 248.011 418.412 247.807 419.588 247.807C420.764 247.807 421.812 248.011 422.733 248.42C423.659 248.83 424.386 249.389 424.914 250.099C425.443 250.804 425.71 251.605 425.716 252.503C425.71 253.463 425.414 254.301 424.829 255.017C424.244 255.733 423.494 256.185 422.579 256.372V256.491C423.278 256.605 423.912 256.866 424.48 257.276C425.054 257.679 425.508 258.188 425.843 258.801C426.184 259.409 426.358 260.077 426.363 260.804C426.358 261.747 426.065 262.591 425.485 263.335C424.906 264.08 424.105 264.668 423.082 265.099C422.065 265.526 420.9 265.739 419.588 265.739ZM419.588 263.028C420.173 263.028 420.684 262.923 421.122 262.713C421.559 262.497 421.9 262.202 422.145 261.827C422.395 261.446 422.52 261.009 422.52 260.514C422.52 260.009 422.392 259.562 422.136 259.176C421.88 258.784 421.534 258.477 421.096 258.256C420.659 258.028 420.156 257.915 419.588 257.915C419.025 257.915 418.522 258.028 418.079 258.256C417.636 258.477 417.287 258.784 417.031 259.176C416.781 259.562 416.656 260.009 416.656 260.514C416.656 261.009 416.778 261.446 417.022 261.827C417.267 262.202 417.61 262.497 418.054 262.713C418.497 262.923 419.008 263.028 419.588 263.028ZM419.588 255.23C420.076 255.23 420.511 255.131 420.892 254.932C421.272 254.733 421.571 254.457 421.787 254.105C422.003 253.753 422.11 253.347 422.11 252.886C422.11 252.432 422.003 252.034 421.787 251.693C421.571 251.347 421.275 251.077 420.9 250.884C420.525 250.685 420.088 250.585 419.588 250.585C419.093 250.585 418.656 250.685 418.275 250.884C417.895 251.077 417.596 251.347 417.38 251.693C417.17 252.034 417.065 252.432 417.065 252.886C417.065 253.347 417.173 253.753 417.389 254.105C417.605 254.457 417.903 254.733 418.284 254.932C418.664 255.131 419.099 255.23 419.588 255.23Z" fill="white"/>
<path d="M486.241 265.884C484.776 265.878 483.514 265.517 482.457 264.801C481.406 264.085 480.597 263.048 480.028 261.69C479.466 260.332 479.187 258.699 479.193 256.79C479.193 254.886 479.474 253.264 480.037 251.923C480.605 250.582 481.415 249.562 482.466 248.864C483.523 248.159 484.781 247.807 486.241 247.807C487.702 247.807 488.957 248.159 490.008 248.864C491.065 249.568 491.878 250.591 492.446 251.932C493.014 253.267 493.295 254.886 493.29 256.79C493.29 258.705 493.006 260.341 492.437 261.699C491.875 263.057 491.068 264.094 490.017 264.81C488.966 265.526 487.707 265.884 486.241 265.884ZM486.241 262.824C487.241 262.824 488.04 262.321 488.636 261.315C489.233 260.31 489.528 258.801 489.523 256.79C489.523 255.466 489.386 254.364 489.114 253.483C488.847 252.602 488.466 251.94 487.972 251.497C487.483 251.054 486.906 250.832 486.241 250.832C485.247 250.832 484.452 251.33 483.855 252.324C483.258 253.318 482.957 254.807 482.952 256.79C482.952 258.131 483.085 259.25 483.352 260.148C483.625 261.04 484.008 261.71 484.503 262.159C484.997 262.602 485.577 262.824 486.241 262.824ZM502.236 247.807C503.134 247.807 503.998 247.957 504.827 248.259C505.663 248.56 506.407 249.04 507.06 249.699C507.719 250.358 508.239 251.233 508.62 252.324C509.006 253.409 509.202 254.741 509.208 256.321C509.208 257.804 509.04 259.128 508.705 260.293C508.376 261.452 507.901 262.438 507.282 263.25C506.663 264.062 505.915 264.682 505.04 265.108C504.165 265.528 503.188 265.739 502.109 265.739C500.944 265.739 499.915 265.514 499.023 265.065C498.131 264.611 497.413 263.994 496.867 263.216C496.327 262.432 496.001 261.551 495.887 260.574H499.526C499.668 261.21 499.967 261.705 500.421 262.057C500.876 262.403 501.438 262.577 502.109 262.577C503.245 262.577 504.109 262.082 504.7 261.094C505.29 260.099 505.589 258.739 505.594 257.011H505.475C505.214 257.523 504.861 257.963 504.418 258.332C503.975 258.696 503.467 258.977 502.893 259.176C502.325 259.375 501.719 259.474 501.077 259.474C500.049 259.474 499.131 259.233 498.325 258.75C497.518 258.267 496.881 257.602 496.415 256.756C495.95 255.909 495.717 254.943 495.717 253.858C495.711 252.688 495.981 251.645 496.526 250.73C497.072 249.815 497.833 249.099 498.81 248.582C499.793 248.06 500.935 247.801 502.236 247.807ZM502.262 250.705C501.688 250.705 501.177 250.841 500.728 251.114C500.285 251.386 499.932 251.753 499.671 252.213C499.415 252.673 499.29 253.187 499.296 253.756C499.296 254.33 499.421 254.847 499.671 255.307C499.927 255.761 500.273 256.125 500.711 256.398C501.154 256.665 501.66 256.798 502.228 256.798C502.654 256.798 503.049 256.719 503.413 256.56C503.776 256.401 504.092 256.182 504.359 255.903C504.631 255.619 504.844 255.293 504.998 254.923C505.151 254.554 505.228 254.162 505.228 253.747C505.222 253.196 505.092 252.69 504.836 252.23C504.58 251.77 504.228 251.401 503.779 251.122C503.33 250.844 502.825 250.705 502.262 250.705Z" fill="#E03E0A"/>
<path d="M571.876 248.045V265.5H568.185V251.548H568.083L564.086 254.054V250.781L568.407 248.045H571.876ZM582.868 265.884C581.402 265.878 580.141 265.517 579.084 264.801C578.033 264.085 577.223 263.048 576.655 261.69C576.092 260.332 575.814 258.699 575.82 256.79C575.82 254.886 576.101 253.264 576.663 251.923C577.232 250.582 578.041 249.562 579.092 248.864C580.149 248.159 581.408 247.807 582.868 247.807C584.328 247.807 585.584 248.159 586.635 248.864C587.692 249.568 588.504 250.591 589.072 251.932C589.641 253.267 589.922 254.886 589.916 256.79C589.916 258.705 589.632 260.341 589.064 261.699C588.501 263.057 587.695 264.094 586.643 264.81C585.592 265.526 584.334 265.884 582.868 265.884ZM582.868 262.824C583.868 262.824 584.666 262.321 585.263 261.315C585.859 260.31 586.155 258.801 586.149 256.79C586.149 255.466 586.013 254.364 585.74 253.483C585.473 252.602 585.092 251.94 584.598 251.497C584.109 251.054 583.533 250.832 582.868 250.832C581.874 250.832 581.078 251.33 580.482 252.324C579.885 253.318 579.584 254.807 579.578 256.79C579.578 258.131 579.712 259.25 579.979 260.148C580.251 261.04 580.635 261.71 581.129 262.159C581.624 262.602 582.203 262.824 582.868 262.824Z" fill="#E03E0A"/>
<path d="M77.2663 305.045V322.5H73.576V308.548H73.4737L69.4766 311.054V307.781L73.7976 305.045H77.2663ZM89.0085 305.045V322.5H85.3182V308.548H85.2159L81.2188 311.054V307.781L85.5398 305.045H89.0085Z" fill="#333333"/>
<path d="M158.412 305.045V322.5H154.722V308.548H154.62L150.623 311.054V307.781L154.944 305.045H158.412ZM162.561 322.5V319.841L168.774 314.088C169.302 313.577 169.745 313.116 170.103 312.707C170.467 312.298 170.743 311.898 170.93 311.506C171.118 311.108 171.211 310.679 171.211 310.219C171.211 309.707 171.095 309.267 170.862 308.898C170.629 308.523 170.311 308.236 169.907 308.037C169.504 307.832 169.047 307.73 168.535 307.73C168.001 307.73 167.535 307.838 167.137 308.054C166.74 308.27 166.433 308.58 166.217 308.983C166.001 309.386 165.893 309.866 165.893 310.423H162.39C162.39 309.281 162.649 308.29 163.166 307.449C163.683 306.608 164.407 305.957 165.339 305.497C166.271 305.037 167.345 304.807 168.561 304.807C169.811 304.807 170.899 305.028 171.825 305.472C172.757 305.909 173.481 306.517 173.998 307.295C174.515 308.074 174.774 308.966 174.774 309.972C174.774 310.631 174.643 311.281 174.382 311.923C174.126 312.565 173.669 313.278 173.01 314.062C172.351 314.841 171.422 315.776 170.223 316.866L167.674 319.364V319.483H175.004V322.5H162.561Z" fill="#333333"/>
<path d="M240.894 305.045V322.5H237.203V308.548H237.101L233.104 311.054V307.781L237.425 305.045H240.894ZM251.494 322.739C250.221 322.739 249.088 322.52 248.093 322.082C247.105 321.639 246.323 321.031 245.75 320.259C245.181 319.48 244.889 318.582 244.872 317.565H248.588C248.61 317.991 248.75 318.366 249.005 318.69C249.267 319.009 249.613 319.256 250.045 319.432C250.477 319.608 250.963 319.696 251.502 319.696C252.065 319.696 252.562 319.597 252.994 319.398C253.426 319.199 253.764 318.923 254.008 318.571C254.252 318.219 254.375 317.812 254.375 317.352C254.375 316.886 254.244 316.474 253.983 316.116C253.727 315.753 253.358 315.469 252.875 315.264C252.397 315.06 251.829 314.957 251.17 314.957H249.542V312.247H251.17C251.727 312.247 252.218 312.151 252.644 311.957C253.076 311.764 253.412 311.497 253.65 311.156C253.889 310.81 254.008 310.406 254.008 309.946C254.008 309.509 253.903 309.125 253.693 308.795C253.488 308.46 253.198 308.199 252.823 308.011C252.454 307.824 252.022 307.73 251.528 307.73C251.028 307.73 250.571 307.821 250.156 308.003C249.741 308.179 249.409 308.432 249.159 308.761C248.909 309.091 248.775 309.477 248.758 309.92H245.221C245.238 308.915 245.525 308.028 246.082 307.261C246.639 306.494 247.389 305.895 248.332 305.463C249.281 305.026 250.352 304.807 251.545 304.807C252.75 304.807 253.804 305.026 254.707 305.463C255.61 305.901 256.312 306.491 256.812 307.236C257.318 307.974 257.568 308.804 257.562 309.724C257.568 310.702 257.264 311.517 256.65 312.17C256.042 312.824 255.25 313.239 254.272 313.415V313.551C255.556 313.716 256.534 314.162 257.204 314.889C257.88 315.611 258.216 316.514 258.21 317.599C258.216 318.594 257.929 319.477 257.349 320.25C256.775 321.023 255.983 321.631 254.971 322.074C253.96 322.517 252.801 322.739 251.494 322.739Z" fill="#333333"/>
<path d="M323.505 305.045V322.5H319.814V308.548H319.712L315.715 311.054V307.781L320.036 305.045H323.505ZM327.389 319.432V316.526L334.676 305.045H337.181V309.068H335.699L331.105 316.338V316.474H341.46V319.432H327.389ZM335.767 322.5V318.545L335.835 317.259V305.045H339.295V322.5H335.767Z" fill="#333333"/>
<path d="M406.737 305.045V322.5H403.046V308.548H402.944L398.947 311.054V307.781L403.268 305.045H406.737ZM417.26 322.739C416.055 322.739 414.982 322.517 414.038 322.074C413.101 321.631 412.357 321.02 411.805 320.241C411.254 319.463 410.967 318.571 410.945 317.565H414.524C414.564 318.241 414.848 318.79 415.376 319.21C415.905 319.631 416.533 319.841 417.26 319.841C417.84 319.841 418.351 319.713 418.794 319.457C419.243 319.196 419.592 318.835 419.842 318.375C420.098 317.909 420.226 317.375 420.226 316.773C420.226 316.159 420.095 315.619 419.834 315.153C419.578 314.687 419.223 314.324 418.769 314.062C418.314 313.801 417.794 313.668 417.209 313.662C416.697 313.662 416.2 313.767 415.717 313.977C415.24 314.187 414.868 314.474 414.601 314.838L411.32 314.25L412.146 305.045H422.817V308.062H415.189L414.737 312.435H414.84C415.146 312.003 415.609 311.645 416.229 311.361C416.848 311.077 417.541 310.935 418.308 310.935C419.359 310.935 420.297 311.182 421.121 311.676C421.945 312.17 422.595 312.849 423.072 313.713C423.55 314.571 423.786 315.56 423.78 316.679C423.786 317.855 423.513 318.901 422.962 319.815C422.416 320.724 421.652 321.44 420.669 321.963C419.692 322.48 418.555 322.739 417.26 322.739Z" fill="#333333"/>
<path d="M489.382 305.045V322.5H485.692V308.548H485.589L481.592 311.054V307.781L485.913 305.045H489.382ZM500.229 322.739C499.332 322.733 498.465 322.582 497.63 322.287C496.8 321.991 496.056 321.511 495.397 320.847C494.738 320.182 494.215 319.301 493.829 318.205C493.448 317.108 493.258 315.761 493.258 314.165C493.263 312.699 493.431 311.389 493.761 310.236C494.096 309.077 494.573 308.094 495.192 307.287C495.817 306.48 496.565 305.866 497.434 305.446C498.303 305.02 499.278 304.807 500.357 304.807C501.522 304.807 502.55 305.034 503.442 305.489C504.334 305.937 505.05 306.548 505.59 307.321C506.136 308.094 506.465 308.96 506.579 309.92H502.94C502.798 309.312 502.499 308.835 502.045 308.489C501.59 308.142 501.028 307.969 500.357 307.969C499.221 307.969 498.357 308.463 497.766 309.452C497.181 310.44 496.883 311.784 496.871 313.483H496.991C497.252 312.966 497.604 312.526 498.048 312.162C498.496 311.793 499.005 311.511 499.573 311.318C500.147 311.119 500.752 311.02 501.388 311.02C502.423 311.02 503.343 311.264 504.15 311.753C504.957 312.236 505.593 312.901 506.059 313.747C506.525 314.594 506.758 315.562 506.758 316.653C506.758 317.835 506.482 318.886 505.931 319.807C505.386 320.727 504.621 321.449 503.638 321.972C502.661 322.489 501.525 322.744 500.229 322.739ZM500.212 319.841C500.78 319.841 501.289 319.705 501.738 319.432C502.187 319.159 502.539 318.79 502.795 318.324C503.05 317.858 503.178 317.335 503.178 316.756C503.178 316.176 503.05 315.656 502.795 315.196C502.545 314.736 502.198 314.369 501.755 314.097C501.312 313.824 500.806 313.688 500.238 313.688C499.812 313.688 499.417 313.767 499.053 313.926C498.695 314.085 498.38 314.307 498.107 314.591C497.84 314.875 497.63 315.205 497.477 315.58C497.323 315.949 497.246 316.344 497.246 316.764C497.246 317.327 497.374 317.841 497.63 318.307C497.891 318.773 498.244 319.145 498.687 319.423C499.136 319.702 499.644 319.841 500.212 319.841Z" fill="#E03E0A"/>
<path d="M573.001 305.045V322.5H569.31V308.548H569.208L565.211 311.054V307.781L569.532 305.045H573.001ZM577.839 322.5L585.075 308.182V308.062H576.646V305.045H588.893V308.105L581.649 322.5H577.839Z" fill="#E03E0A"/>
<path d="M75.2038 362.045V379.5H71.5135V365.548H71.4112L67.4141 368.054V364.781L71.7351 362.045H75.2038ZM85.8636 379.739C84.5511 379.739 83.3835 379.526 82.3608 379.099C81.3438 378.668 80.5455 378.08 79.9659 377.335C79.3864 376.591 79.0966 375.747 79.0966 374.804C79.0966 374.077 79.2614 373.409 79.5909 372.801C79.9261 372.188 80.3807 371.679 80.9545 371.276C81.5284 370.866 82.1705 370.605 82.8807 370.491V370.372C81.9489 370.185 81.1932 369.733 80.6136 369.017C80.0341 368.295 79.7443 367.457 79.7443 366.503C79.7443 365.599 80.0085 364.795 80.5369 364.091C81.0653 363.381 81.7898 362.824 82.7102 362.42C83.6364 362.011 84.6875 361.807 85.8636 361.807C87.0398 361.807 88.0881 362.011 89.0085 362.42C89.9347 362.83 90.6619 363.389 91.1903 364.099C91.7188 364.804 91.9858 365.605 91.9915 366.503C91.9858 367.463 91.6903 368.301 91.1051 369.017C90.5199 369.733 89.7699 370.185 88.8551 370.372V370.491C89.554 370.605 90.1875 370.866 90.7557 371.276C91.3295 371.679 91.7841 372.188 92.1193 372.801C92.4602 373.409 92.6335 374.077 92.6392 374.804C92.6335 375.747 92.3409 376.591 91.7614 377.335C91.1818 378.08 90.3807 378.668 89.358 379.099C88.3409 379.526 87.1761 379.739 85.8636 379.739ZM85.8636 377.028C86.4489 377.028 86.9602 376.923 87.3977 376.713C87.8352 376.497 88.1761 376.202 88.4205 375.827C88.6705 375.446 88.7955 375.009 88.7955 374.514C88.7955 374.009 88.6676 373.562 88.4119 373.176C88.1563 372.784 87.8097 372.477 87.3722 372.256C86.9347 372.028 86.4318 371.915 85.8636 371.915C85.3011 371.915 84.7983 372.028 84.3551 372.256C83.9119 372.477 83.5625 372.784 83.3068 373.176C83.0568 373.562 82.9318 374.009 82.9318 374.514C82.9318 375.009 83.054 375.446 83.2983 375.827C83.5426 376.202 83.8864 376.497 84.3295 376.713C84.7727 376.923 85.2841 377.028 85.8636 377.028ZM85.8636 369.23C86.3523 369.23 86.7869 369.131 87.1676 368.932C87.5483 368.733 87.8466 368.457 88.0625 368.105C88.2784 367.753 88.3864 367.347 88.3864 366.886C88.3864 366.432 88.2784 366.034 88.0625 365.693C87.8466 365.347 87.5511 365.077 87.1761 364.884C86.8011 364.685 86.3636 364.585 85.8636 364.585C85.3693 364.585 84.9318 364.685 84.5511 364.884C84.1705 365.077 83.8722 365.347 83.6562 365.693C83.446 366.034 83.3409 366.432 83.3409 366.886C83.3409 367.347 83.4489 367.753 83.6648 368.105C83.8807 368.457 84.179 368.733 84.5597 368.932C84.9403 369.131 85.375 369.23 85.8636 369.23Z" fill="#333333"/>
<path d="M158.049 362.045V379.5H154.359V365.548H154.256L150.259 368.054V364.781L154.58 362.045H158.049ZM168.513 361.807C169.411 361.807 170.274 361.957 171.104 362.259C171.939 362.56 172.683 363.04 173.337 363.699C173.996 364.358 174.516 365.233 174.896 366.324C175.283 367.409 175.479 368.741 175.484 370.321C175.484 371.804 175.317 373.128 174.982 374.293C174.652 375.452 174.178 376.438 173.558 377.25C172.939 378.062 172.192 378.682 171.317 379.108C170.442 379.528 169.465 379.739 168.385 379.739C167.22 379.739 166.192 379.514 165.3 379.065C164.408 378.611 163.689 377.994 163.144 377.216C162.604 376.432 162.277 375.551 162.163 374.574H165.803C165.945 375.21 166.243 375.705 166.697 376.057C167.152 376.403 167.715 376.577 168.385 376.577C169.521 376.577 170.385 376.082 170.976 375.094C171.567 374.099 171.865 372.739 171.871 371.011H171.751C171.49 371.523 171.138 371.963 170.695 372.332C170.251 372.696 169.743 372.977 169.169 373.176C168.601 373.375 167.996 373.474 167.354 373.474C166.325 373.474 165.408 373.233 164.601 372.75C163.794 372.267 163.158 371.602 162.692 370.756C162.226 369.909 161.993 368.943 161.993 367.858C161.987 366.688 162.257 365.645 162.803 364.73C163.348 363.815 164.109 363.099 165.087 362.582C166.07 362.06 167.212 361.801 168.513 361.807ZM168.538 364.705C167.965 364.705 167.453 364.841 167.004 365.114C166.561 365.386 166.209 365.753 165.947 366.213C165.692 366.673 165.567 367.187 165.572 367.756C165.572 368.33 165.697 368.847 165.947 369.307C166.203 369.761 166.55 370.125 166.987 370.398C167.43 370.665 167.936 370.798 168.504 370.798C168.93 370.798 169.325 370.719 169.689 370.56C170.053 370.401 170.368 370.182 170.635 369.903C170.908 369.619 171.121 369.293 171.274 368.923C171.428 368.554 171.504 368.162 171.504 367.747C171.499 367.196 171.368 366.69 171.112 366.23C170.857 365.77 170.504 365.401 170.055 365.122C169.607 364.844 169.101 364.705 168.538 364.705Z" fill="#333333"/>
<path d="M231.261 379.5V376.841L237.474 371.088C238.002 370.577 238.446 370.116 238.804 369.707C239.167 369.298 239.443 368.898 239.63 368.506C239.818 368.108 239.912 367.679 239.912 367.219C239.912 366.707 239.795 366.267 239.562 365.898C239.329 365.523 239.011 365.236 238.608 365.037C238.204 364.832 237.747 364.73 237.235 364.73C236.701 364.73 236.235 364.838 235.838 365.054C235.44 365.27 235.133 365.58 234.917 365.983C234.701 366.386 234.593 366.866 234.593 367.423H231.091C231.091 366.281 231.349 365.29 231.866 364.449C232.383 363.608 233.108 362.957 234.039 362.497C234.971 362.037 236.045 361.807 237.261 361.807C238.511 361.807 239.599 362.028 240.525 362.472C241.457 362.909 242.181 363.517 242.698 364.295C243.216 365.074 243.474 365.966 243.474 366.972C243.474 367.631 243.343 368.281 243.082 368.923C242.826 369.565 242.369 370.278 241.71 371.062C241.051 371.841 240.122 372.776 238.923 373.866L236.375 376.364V376.483H243.704V379.5H231.261ZM253.222 379.884C251.756 379.878 250.495 379.517 249.438 378.801C248.387 378.085 247.577 377.048 247.009 375.69C246.446 374.332 246.168 372.699 246.174 370.79C246.174 368.886 246.455 367.264 247.017 365.923C247.586 364.582 248.395 363.562 249.446 362.864C250.503 362.159 251.762 361.807 253.222 361.807C254.682 361.807 255.938 362.159 256.989 362.864C258.046 363.568 258.858 364.591 259.426 365.932C259.995 367.267 260.276 368.886 260.27 370.79C260.27 372.705 259.986 374.341 259.418 375.699C258.855 377.057 258.049 378.094 256.997 378.81C255.946 379.526 254.688 379.884 253.222 379.884ZM253.222 376.824C254.222 376.824 255.02 376.321 255.617 375.315C256.213 374.31 256.509 372.801 256.503 370.79C256.503 369.466 256.367 368.364 256.094 367.483C255.827 366.602 255.446 365.94 254.952 365.497C254.463 365.054 253.887 364.832 253.222 364.832C252.228 364.832 251.432 365.33 250.836 366.324C250.239 367.318 249.938 368.807 249.932 370.79C249.932 372.131 250.066 373.25 250.333 374.148C250.605 375.04 250.989 375.71 251.483 376.159C251.978 376.602 252.557 376.824 253.222 376.824Z" fill="#333333"/>
<path d="M316.485 379.5V376.841L322.698 371.088C323.227 370.577 323.67 370.116 324.028 369.707C324.391 369.298 324.667 368.898 324.854 368.506C325.042 368.108 325.136 367.679 325.136 367.219C325.136 366.707 325.019 366.267 324.786 365.898C324.553 365.523 324.235 365.236 323.832 365.037C323.428 364.832 322.971 364.73 322.46 364.73C321.925 364.73 321.46 364.838 321.062 365.054C320.664 365.27 320.357 365.58 320.141 365.983C319.925 366.386 319.817 366.866 319.817 367.423H316.315C316.315 366.281 316.573 365.29 317.09 364.449C317.607 363.608 318.332 362.957 319.263 362.497C320.195 362.037 321.269 361.807 322.485 361.807C323.735 361.807 324.823 362.028 325.749 362.472C326.681 362.909 327.406 363.517 327.923 364.295C328.44 365.074 328.698 365.966 328.698 366.972C328.698 367.631 328.567 368.281 328.306 368.923C328.05 369.565 327.593 370.278 326.934 371.062C326.275 371.841 325.346 372.776 324.147 373.866L321.599 376.364V376.483H328.928V379.5H316.485ZM339.196 362.045V379.5H335.506V365.548H335.403L331.406 368.054V364.781L335.727 362.045H339.196Z" fill="#333333"/>
<path d="M397.631 379.5V376.841L403.844 371.088C404.373 370.577 404.816 370.116 405.174 369.707C405.537 369.298 405.813 368.898 406 368.506C406.188 368.108 406.282 367.679 406.282 367.219C406.282 366.707 406.165 366.267 405.932 365.898C405.699 365.523 405.381 365.236 404.978 365.037C404.574 364.832 404.117 364.73 403.606 364.73C403.071 364.73 402.606 364.838 402.208 365.054C401.81 365.27 401.503 365.58 401.287 365.983C401.071 366.386 400.963 366.866 400.963 367.423H397.461C397.461 366.281 397.719 365.29 398.236 364.449C398.753 363.608 399.478 362.957 400.409 362.497C401.341 362.037 402.415 361.807 403.631 361.807C404.881 361.807 405.969 362.028 406.895 362.472C407.827 362.909 408.552 363.517 409.069 364.295C409.586 365.074 409.844 365.966 409.844 366.972C409.844 367.631 409.713 368.281 409.452 368.923C409.196 369.565 408.739 370.278 408.08 371.062C407.421 371.841 406.492 372.776 405.293 373.866L402.745 376.364V376.483H410.074V379.5H397.631ZM412.748 379.5V376.841L418.961 371.088C419.49 370.577 419.933 370.116 420.291 369.707C420.655 369.298 420.93 368.898 421.118 368.506C421.305 368.108 421.399 367.679 421.399 367.219C421.399 366.707 421.282 366.267 421.049 365.898C420.816 365.523 420.498 365.236 420.095 365.037C419.691 364.832 419.234 364.73 418.723 364.73C418.189 364.73 417.723 364.838 417.325 365.054C416.927 365.27 416.62 365.58 416.405 365.983C416.189 366.386 416.081 366.866 416.081 367.423H412.578C412.578 366.281 412.836 365.29 413.353 364.449C413.87 363.608 414.595 362.957 415.527 362.497C416.458 362.037 417.532 361.807 418.748 361.807C419.998 361.807 421.086 362.028 422.012 362.472C422.944 362.909 423.669 363.517 424.186 364.295C424.703 365.074 424.961 365.966 424.961 366.972C424.961 367.631 424.831 368.281 424.569 368.923C424.314 369.565 423.856 370.278 423.197 371.062C422.538 371.841 421.609 372.776 420.41 373.866L417.862 376.364V376.483H425.191V379.5H412.748Z" fill="#333333"/>
<path d="M480.113 379.5V376.841L486.326 371.088C486.854 370.577 487.297 370.116 487.655 369.707C488.019 369.298 488.294 368.898 488.482 368.506C488.669 368.108 488.763 367.679 488.763 367.219C488.763 366.707 488.647 366.267 488.414 365.898C488.181 365.523 487.863 365.236 487.459 365.037C487.056 364.832 486.598 364.73 486.087 364.73C485.553 364.73 485.087 364.838 484.689 365.054C484.292 365.27 483.985 365.58 483.769 365.983C483.553 366.386 483.445 366.866 483.445 367.423H479.942C479.942 366.281 480.201 365.29 480.718 364.449C481.235 363.608 481.959 362.957 482.891 362.497C483.823 362.037 484.897 361.807 486.113 361.807C487.363 361.807 488.451 362.028 489.377 362.472C490.309 362.909 491.033 363.517 491.55 364.295C492.067 365.074 492.326 365.966 492.326 366.972C492.326 367.631 492.195 368.281 491.934 368.923C491.678 369.565 491.22 370.278 490.561 371.062C489.902 371.841 488.973 372.776 487.774 373.866L485.226 376.364V376.483H492.556V379.5H480.113ZM501.681 379.739C500.409 379.739 499.275 379.52 498.281 379.082C497.292 378.639 496.511 378.031 495.937 377.259C495.369 376.48 495.076 375.582 495.059 374.565H498.775C498.798 374.991 498.937 375.366 499.193 375.69C499.454 376.009 499.801 376.256 500.233 376.432C500.664 376.608 501.15 376.696 501.69 376.696C502.252 376.696 502.75 376.597 503.181 376.398C503.613 376.199 503.951 375.923 504.196 375.571C504.44 375.219 504.562 374.812 504.562 374.352C504.562 373.886 504.431 373.474 504.17 373.116C503.914 372.753 503.545 372.469 503.062 372.264C502.585 372.06 502.017 371.957 501.358 371.957H499.73V369.247H501.358C501.914 369.247 502.406 369.151 502.832 368.957C503.264 368.764 503.599 368.497 503.838 368.156C504.076 367.81 504.196 367.406 504.196 366.946C504.196 366.509 504.091 366.125 503.88 365.795C503.676 365.46 503.386 365.199 503.011 365.011C502.642 364.824 502.21 364.73 501.716 364.73C501.216 364.73 500.758 364.821 500.343 365.003C499.929 365.179 499.596 365.432 499.346 365.761C499.096 366.091 498.963 366.477 498.946 366.92H495.409C495.426 365.915 495.713 365.028 496.269 364.261C496.826 363.494 497.576 362.895 498.519 362.463C499.468 362.026 500.539 361.807 501.733 361.807C502.937 361.807 503.991 362.026 504.894 362.463C505.798 362.901 506.5 363.491 507 364.236C507.505 364.974 507.755 365.804 507.75 366.724C507.755 367.702 507.451 368.517 506.838 369.17C506.23 369.824 505.437 370.239 504.46 370.415V370.551C505.744 370.716 506.721 371.162 507.392 371.889C508.068 372.611 508.403 373.514 508.397 374.599C508.403 375.594 508.116 376.477 507.537 377.25C506.963 378.023 506.17 378.631 505.159 379.074C504.147 379.517 502.988 379.739 501.681 379.739Z" fill="#E03E0A"/>
<path d="M562.911 379.5V376.841L569.124 371.088C569.652 370.577 570.096 370.116 570.453 369.707C570.817 369.298 571.093 368.898 571.28 368.506C571.468 368.108 571.561 367.679 571.561 367.219C571.561 366.707 571.445 366.267 571.212 365.898C570.979 365.523 570.661 365.236 570.257 365.037C569.854 364.832 569.397 364.73 568.885 364.73C568.351 364.73 567.885 364.838 567.488 365.054C567.09 365.27 566.783 365.58 566.567 365.983C566.351 366.386 566.243 366.866 566.243 367.423H562.74C562.74 366.281 562.999 365.29 563.516 364.449C564.033 363.608 564.757 362.957 565.689 362.497C566.621 362.037 567.695 361.807 568.911 361.807C570.161 361.807 571.249 362.028 572.175 362.472C573.107 362.909 573.831 363.517 574.348 364.295C574.865 365.074 575.124 365.966 575.124 366.972C575.124 367.631 574.993 368.281 574.732 368.923C574.476 369.565 574.019 370.278 573.36 371.062C572.701 371.841 571.772 372.776 570.573 373.866L568.025 376.364V376.483H575.354V379.5H562.911ZM577.389 376.432V373.526L584.676 362.045H587.181V366.068H585.699L581.105 373.338V373.474H591.46V376.432H577.389ZM585.767 379.5V375.545L585.835 374.259V362.045H589.295V379.5H585.767Z" fill="#E03E0A"/>
<path d="M66.1218 436.5V433.841L72.3349 428.088C72.8633 427.577 73.3065 427.116 73.6644 426.707C74.0281 426.298 74.3036 425.898 74.4911 425.506C74.6786 425.108 74.7724 424.679 74.7724 424.219C74.7724 423.707 74.6559 423.267 74.4229 422.898C74.19 422.523 73.8718 422.236 73.4684 422.037C73.065 421.832 72.6076 421.73 72.0962 421.73C71.5621 421.73 71.0962 421.838 70.6985 422.054C70.3008 422.27 69.994 422.58 69.7781 422.983C69.5621 423.386 69.4542 423.866 69.4542 424.423H65.9513C65.9513 423.281 66.2099 422.29 66.7269 421.449C67.244 420.608 67.9684 419.957 68.9002 419.497C69.832 419.037 70.9059 418.807 72.1218 418.807C73.3718 418.807 74.4599 419.028 75.386 419.472C76.3178 419.909 77.0423 420.517 77.5593 421.295C78.0764 422.074 78.3349 422.966 78.3349 423.972C78.3349 424.631 78.2042 425.281 77.9428 425.923C77.6871 426.565 77.2298 427.278 76.5707 428.062C75.9116 428.841 74.9826 429.776 73.7837 430.866L71.2354 433.364V433.483H78.565V436.5H66.1218ZM87.614 436.739C86.4094 436.739 85.3356 436.517 84.3924 436.074C83.4549 435.631 82.7106 435.02 82.1594 434.241C81.6083 433.463 81.3214 432.571 81.2987 431.565H84.8782C84.918 432.241 85.2021 432.79 85.7305 433.21C86.2589 433.631 86.8867 433.841 87.614 433.841C88.1935 433.841 88.7049 433.713 89.1481 433.457C89.5969 433.196 89.9464 432.835 90.1964 432.375C90.4521 431.909 90.5799 431.375 90.5799 430.773C90.5799 430.159 90.4492 429.619 90.1879 429.153C89.9322 428.687 89.5771 428.324 89.1225 428.062C88.668 427.801 88.1481 427.668 87.5629 427.662C87.0515 427.662 86.5543 427.767 86.0714 427.977C85.5941 428.187 85.2219 428.474 84.9549 428.838L81.6737 428.25L82.5004 419.045H93.1708V422.062H85.543L85.0913 426.435H85.1935C85.5004 426.003 85.9634 425.645 86.5827 425.361C87.2021 425.077 87.8952 424.935 88.6623 424.935C89.7134 424.935 90.6509 425.182 91.4748 425.676C92.2987 426.17 92.9492 426.849 93.4265 427.713C93.9038 428.571 94.1396 429.56 94.1339 430.679C94.1396 431.855 93.8668 432.901 93.3157 433.815C92.7702 434.724 92.006 435.44 91.0231 435.963C90.0458 436.48 88.9094 436.739 87.614 436.739Z" fill="#333333"/>
<path d="M148.768 436.5V433.841L154.981 428.088C155.509 427.577 155.952 427.116 156.31 426.707C156.674 426.298 156.95 425.898 157.137 425.506C157.325 425.108 157.418 424.679 157.418 424.219C157.418 423.707 157.302 423.267 157.069 422.898C156.836 422.523 156.518 422.236 156.114 422.037C155.711 421.832 155.254 421.73 154.742 421.73C154.208 421.73 153.742 421.838 153.345 422.054C152.947 422.27 152.64 422.58 152.424 422.983C152.208 423.386 152.1 423.866 152.1 424.423H148.597C148.597 423.281 148.856 422.29 149.373 421.449C149.89 420.608 150.614 419.957 151.546 419.497C152.478 419.037 153.552 418.807 154.768 418.807C156.018 418.807 157.106 419.028 158.032 419.472C158.964 419.909 159.688 420.517 160.205 421.295C160.722 422.074 160.981 422.966 160.981 423.972C160.981 424.631 160.85 425.281 160.589 425.923C160.333 426.565 159.876 427.278 159.217 428.062C158.558 428.841 157.629 429.776 156.43 430.866L153.881 433.364V433.483H161.211V436.5H148.768ZM170.584 436.739C169.686 436.733 168.82 436.582 167.984 436.287C167.155 435.991 166.411 435.511 165.751 434.847C165.092 434.182 164.57 433.301 164.183 432.205C163.803 431.108 163.612 429.761 163.612 428.165C163.618 426.699 163.786 425.389 164.115 424.236C164.45 423.077 164.928 422.094 165.547 421.287C166.172 420.48 166.919 419.866 167.788 419.446C168.658 419.02 169.632 418.807 170.712 418.807C171.876 418.807 172.905 419.034 173.797 419.489C174.689 419.937 175.405 420.548 175.945 421.321C176.49 422.094 176.82 422.96 176.933 423.92H173.294C173.152 423.312 172.854 422.835 172.399 422.489C171.945 422.142 171.382 421.969 170.712 421.969C169.575 421.969 168.712 422.463 168.121 423.452C167.536 424.44 167.237 425.784 167.226 427.483H167.345C167.607 426.966 167.959 426.526 168.402 426.162C168.851 425.793 169.359 425.511 169.928 425.318C170.501 425.119 171.107 425.02 171.743 425.02C172.777 425.02 173.697 425.264 174.504 425.753C175.311 426.236 175.947 426.901 176.413 427.747C176.879 428.594 177.112 429.562 177.112 430.653C177.112 431.835 176.837 432.886 176.286 433.807C175.74 434.727 174.976 435.449 173.993 435.972C173.016 436.489 171.879 436.744 170.584 436.739ZM170.567 433.841C171.135 433.841 171.644 433.705 172.092 433.432C172.541 433.159 172.894 432.79 173.149 432.324C173.405 431.858 173.533 431.335 173.533 430.756C173.533 430.176 173.405 429.656 173.149 429.196C172.899 428.736 172.553 428.369 172.109 428.097C171.666 427.824 171.161 427.688 170.592 427.688C170.166 427.688 169.771 427.767 169.408 427.926C169.05 428.085 168.734 428.307 168.462 428.591C168.195 428.875 167.984 429.205 167.831 429.58C167.678 429.949 167.601 430.344 167.601 430.764C167.601 431.327 167.729 431.841 167.984 432.307C168.246 432.773 168.598 433.145 169.041 433.423C169.49 433.702 169.999 433.841 170.567 433.841Z" fill="#333333"/>
<path d="M232.386 436.5V433.841L238.599 428.088C239.127 427.577 239.571 427.116 239.929 426.707C240.292 426.298 240.568 425.898 240.755 425.506C240.943 425.108 241.037 424.679 241.037 424.219C241.037 423.707 240.92 423.267 240.687 422.898C240.454 422.523 240.136 422.236 239.733 422.037C239.329 421.832 238.872 421.73 238.36 421.73C237.826 421.73 237.36 421.838 236.963 422.054C236.565 422.27 236.258 422.58 236.042 422.983C235.826 423.386 235.718 423.866 235.718 424.423H232.216C232.216 423.281 232.474 422.29 232.991 421.449C233.508 420.608 234.233 419.957 235.164 419.497C236.096 419.037 237.17 418.807 238.386 418.807C239.636 418.807 240.724 419.028 241.65 419.472C242.582 419.909 243.306 420.517 243.823 421.295C244.341 422.074 244.599 422.966 244.599 423.972C244.599 424.631 244.468 425.281 244.207 425.923C243.951 426.565 243.494 427.278 242.835 428.062C242.176 428.841 241.247 429.776 240.048 430.866L237.5 433.364V433.483H244.829V436.5H232.386ZM248.193 436.5L255.429 422.182V422.062H247V419.045H259.247V422.105L252.003 436.5H248.193Z" fill="#333333"/>
<path d="M314.423 436.5V433.841L320.636 428.088C321.164 427.577 321.607 427.116 321.965 426.707C322.329 426.298 322.604 425.898 322.792 425.506C322.979 425.108 323.073 424.679 323.073 424.219C323.073 423.707 322.957 423.267 322.724 422.898C322.491 422.523 322.173 422.236 321.769 422.037C321.366 421.832 320.908 421.73 320.397 421.73C319.863 421.73 319.397 421.838 318.999 422.054C318.602 422.27 318.295 422.58 318.079 422.983C317.863 423.386 317.755 423.866 317.755 424.423H314.252C314.252 423.281 314.511 422.29 315.028 421.449C315.545 420.608 316.269 419.957 317.201 419.497C318.133 419.037 319.207 418.807 320.423 418.807C321.673 418.807 322.761 419.028 323.687 419.472C324.619 419.909 325.343 420.517 325.86 421.295C326.377 422.074 326.636 422.966 326.636 423.972C326.636 424.631 326.505 425.281 326.244 425.923C325.988 426.565 325.531 427.278 324.871 428.062C324.212 428.841 323.283 429.776 322.085 430.866L319.536 433.364V433.483H326.866V436.5H314.423ZM336.051 436.739C334.739 436.739 333.571 436.526 332.548 436.099C331.531 435.668 330.733 435.08 330.153 434.335C329.574 433.591 329.284 432.747 329.284 431.804C329.284 431.077 329.449 430.409 329.778 429.801C330.114 429.188 330.568 428.679 331.142 428.276C331.716 427.866 332.358 427.605 333.068 427.491V427.372C332.136 427.185 331.381 426.733 330.801 426.017C330.222 425.295 329.932 424.457 329.932 423.503C329.932 422.599 330.196 421.795 330.724 421.091C331.253 420.381 331.977 419.824 332.898 419.42C333.824 419.011 334.875 418.807 336.051 418.807C337.227 418.807 338.276 419.011 339.196 419.42C340.122 419.83 340.849 420.389 341.378 421.099C341.906 421.804 342.173 422.605 342.179 423.503C342.173 424.463 341.878 425.301 341.293 426.017C340.707 426.733 339.957 427.185 339.043 427.372V427.491C339.741 427.605 340.375 427.866 340.943 428.276C341.517 428.679 341.972 429.188 342.307 429.801C342.648 430.409 342.821 431.077 342.827 431.804C342.821 432.747 342.528 433.591 341.949 434.335C341.369 435.08 340.568 435.668 339.545 436.099C338.528 436.526 337.364 436.739 336.051 436.739ZM336.051 434.028C336.636 434.028 337.148 433.923 337.585 433.713C338.023 433.497 338.364 433.202 338.608 432.827C338.858 432.446 338.983 432.009 338.983 431.514C338.983 431.009 338.855 430.562 338.599 430.176C338.344 429.784 337.997 429.477 337.56 429.256C337.122 429.028 336.619 428.915 336.051 428.915C335.489 428.915 334.986 429.028 334.543 429.256C334.099 429.477 333.75 429.784 333.494 430.176C333.244 430.562 333.119 431.009 333.119 431.514C333.119 432.009 333.241 432.446 333.486 432.827C333.73 433.202 334.074 433.497 334.517 433.713C334.96 433.923 335.472 434.028 336.051 434.028ZM336.051 426.23C336.54 426.23 336.974 426.131 337.355 425.932C337.736 425.733 338.034 425.457 338.25 425.105C338.466 424.753 338.574 424.347 338.574 423.886C338.574 423.432 338.466 423.034 338.25 422.693C338.034 422.347 337.739 422.077 337.364 421.884C336.989 421.685 336.551 421.585 336.051 421.585C335.557 421.585 335.119 421.685 334.739 421.884C334.358 422.077 334.06 422.347 333.844 422.693C333.634 423.034 333.528 423.432 333.528 423.886C333.528 424.347 333.636 424.753 333.852 425.105C334.068 425.457 334.366 425.733 334.747 425.932C335.128 426.131 335.562 426.23 336.051 426.23Z" fill="#333333"/>
<path d="M397.268 436.5V433.841L403.481 428.088C404.009 427.577 404.452 427.116 404.81 426.707C405.174 426.298 405.45 425.898 405.637 425.506C405.825 425.108 405.918 424.679 405.918 424.219C405.918 423.707 405.802 423.267 405.569 422.898C405.336 422.523 405.018 422.236 404.614 422.037C404.211 421.832 403.754 421.73 403.242 421.73C402.708 421.73 402.242 421.838 401.845 422.054C401.447 422.27 401.14 422.58 400.924 422.983C400.708 423.386 400.6 423.866 400.6 424.423H397.097C397.097 423.281 397.356 422.29 397.873 421.449C398.39 420.608 399.114 419.957 400.046 419.497C400.978 419.037 402.052 418.807 403.268 418.807C404.518 418.807 405.606 419.028 406.532 419.472C407.464 419.909 408.188 420.517 408.705 421.295C409.222 422.074 409.481 422.966 409.481 423.972C409.481 424.631 409.35 425.281 409.089 425.923C408.833 426.565 408.376 427.278 407.717 428.062C407.058 428.841 406.129 429.776 404.93 430.866L402.381 433.364V433.483H409.711V436.5H397.268ZM418.7 418.807C419.598 418.807 420.462 418.957 421.291 419.259C422.126 419.56 422.871 420.04 423.524 420.699C424.183 421.358 424.703 422.233 425.084 423.324C425.47 424.409 425.666 425.741 425.672 427.321C425.672 428.804 425.504 430.128 425.169 431.293C424.84 432.452 424.365 433.438 423.746 434.25C423.126 435.062 422.379 435.682 421.504 436.108C420.629 436.528 419.652 436.739 418.572 436.739C417.408 436.739 416.379 436.514 415.487 436.065C414.595 435.611 413.876 434.994 413.331 434.216C412.791 433.432 412.465 432.551 412.351 431.574H415.99C416.132 432.21 416.43 432.705 416.885 433.057C417.34 433.403 417.902 433.577 418.572 433.577C419.709 433.577 420.572 433.082 421.163 432.094C421.754 431.099 422.053 429.739 422.058 428.011H421.939C421.678 428.523 421.325 428.963 420.882 429.332C420.439 429.696 419.93 429.977 419.357 430.176C418.788 430.375 418.183 430.474 417.541 430.474C416.513 430.474 415.595 430.233 414.788 429.75C413.982 429.267 413.345 428.602 412.879 427.756C412.413 426.909 412.18 425.943 412.18 424.858C412.175 423.688 412.445 422.645 412.99 421.73C413.536 420.815 414.297 420.099 415.274 419.582C416.257 419.06 417.399 418.801 418.7 418.807ZM418.726 421.705C418.152 421.705 417.641 421.841 417.192 422.114C416.749 422.386 416.396 422.753 416.135 423.213C415.879 423.673 415.754 424.187 415.76 424.756C415.76 425.33 415.885 425.847 416.135 426.307C416.391 426.761 416.737 427.125 417.175 427.398C417.618 427.665 418.124 427.798 418.692 427.798C419.118 427.798 419.513 427.719 419.876 427.56C420.24 427.401 420.555 427.182 420.822 426.903C421.095 426.619 421.308 426.293 421.462 425.923C421.615 425.554 421.692 425.162 421.692 424.747C421.686 424.196 421.555 423.69 421.3 423.23C421.044 422.77 420.692 422.401 420.243 422.122C419.794 421.844 419.288 421.705 418.726 421.705Z" fill="#333333"/>
<path d="M485.861 436.739C484.588 436.739 483.455 436.52 482.461 436.082C481.472 435.639 480.691 435.031 480.117 434.259C479.549 433.48 479.256 432.582 479.239 431.565H482.955C482.978 431.991 483.117 432.366 483.372 432.69C483.634 433.009 483.98 433.256 484.412 433.432C484.844 433.608 485.33 433.696 485.87 433.696C486.432 433.696 486.929 433.597 487.361 433.398C487.793 433.199 488.131 432.923 488.375 432.571C488.62 432.219 488.742 431.812 488.742 431.352C488.742 430.886 488.611 430.474 488.35 430.116C488.094 429.753 487.725 429.469 487.242 429.264C486.765 429.06 486.196 428.957 485.537 428.957H483.909V426.247H485.537C486.094 426.247 486.586 426.151 487.012 425.957C487.443 425.764 487.779 425.497 488.017 425.156C488.256 424.81 488.375 424.406 488.375 423.946C488.375 423.509 488.27 423.125 488.06 422.795C487.855 422.46 487.566 422.199 487.191 422.011C486.821 421.824 486.39 421.73 485.895 421.73C485.395 421.73 484.938 421.821 484.523 422.003C484.108 422.179 483.776 422.432 483.526 422.761C483.276 423.091 483.142 423.477 483.125 423.92H479.588C479.605 422.915 479.892 422.028 480.449 421.261C481.006 420.494 481.756 419.895 482.699 419.463C483.648 419.026 484.719 418.807 485.912 418.807C487.117 418.807 488.171 419.026 489.074 419.463C489.978 419.901 490.679 420.491 491.179 421.236C491.685 421.974 491.935 422.804 491.929 423.724C491.935 424.702 491.631 425.517 491.017 426.17C490.409 426.824 489.617 427.239 488.64 427.415V427.551C489.924 427.716 490.901 428.162 491.571 428.889C492.247 429.611 492.583 430.514 492.577 431.599C492.583 432.594 492.296 433.477 491.716 434.25C491.142 435.023 490.35 435.631 489.338 436.074C488.327 436.517 487.168 436.739 485.861 436.739ZM502.073 436.884C500.608 436.878 499.346 436.517 498.289 435.801C497.238 435.085 496.429 434.048 495.86 432.69C495.298 431.332 495.019 429.699 495.025 427.79C495.025 425.886 495.306 424.264 495.869 422.923C496.437 421.582 497.247 420.562 498.298 419.864C499.355 419.159 500.613 418.807 502.073 418.807C503.534 418.807 504.789 419.159 505.841 419.864C506.897 420.568 507.71 421.591 508.278 422.932C508.846 424.267 509.127 425.886 509.122 427.79C509.122 429.705 508.838 431.341 508.269 432.699C507.707 434.057 506.9 435.094 505.849 435.81C504.798 436.526 503.539 436.884 502.073 436.884ZM502.073 433.824C503.073 433.824 503.872 433.321 504.468 432.315C505.065 431.31 505.36 429.801 505.355 427.79C505.355 426.466 505.218 425.364 504.946 424.483C504.679 423.602 504.298 422.94 503.804 422.497C503.315 422.054 502.738 421.832 502.073 421.832C501.079 421.832 500.284 422.33 499.687 423.324C499.091 424.318 498.789 425.807 498.784 427.79C498.784 429.131 498.917 430.25 499.184 431.148C499.457 432.04 499.841 432.71 500.335 433.159C500.829 433.602 501.409 433.824 502.073 433.824Z" fill="#E03E0A"/>
<path d="M571.085 436.739C569.813 436.739 568.679 436.52 567.685 436.082C566.696 435.639 565.915 435.031 565.341 434.259C564.773 433.48 564.48 432.582 564.463 431.565H568.179C568.202 431.991 568.341 432.366 568.597 432.69C568.858 433.009 569.205 433.256 569.636 433.432C570.068 433.608 570.554 433.696 571.094 433.696C571.656 433.696 572.153 433.597 572.585 433.398C573.017 433.199 573.355 432.923 573.599 432.571C573.844 432.219 573.966 431.812 573.966 431.352C573.966 430.886 573.835 430.474 573.574 430.116C573.318 429.753 572.949 429.469 572.466 429.264C571.989 429.06 571.42 428.957 570.761 428.957H569.134V426.247H570.761C571.318 426.247 571.81 426.151 572.236 425.957C572.668 425.764 573.003 425.497 573.241 425.156C573.48 424.81 573.599 424.406 573.599 423.946C573.599 423.509 573.494 423.125 573.284 422.795C573.08 422.46 572.79 422.199 572.415 422.011C572.045 421.824 571.614 421.73 571.119 421.73C570.619 421.73 570.162 421.821 569.747 422.003C569.332 422.179 569 422.432 568.75 422.761C568.5 423.091 568.366 423.477 568.349 423.92H564.812C564.83 422.915 565.116 422.028 565.673 421.261C566.23 420.494 566.98 419.895 567.923 419.463C568.872 419.026 569.943 418.807 571.136 418.807C572.341 418.807 573.395 419.026 574.298 419.463C575.202 419.901 575.903 420.491 576.403 421.236C576.909 421.974 577.159 422.804 577.153 423.724C577.159 424.702 576.855 425.517 576.241 426.17C575.634 426.824 574.841 427.239 573.864 427.415V427.551C575.148 427.716 576.125 428.162 576.795 428.889C577.472 429.611 577.807 430.514 577.801 431.599C577.807 432.594 577.52 433.477 576.94 434.25C576.366 435.023 575.574 435.631 574.562 436.074C573.551 436.517 572.392 436.739 571.085 436.739ZM588.048 419.045V436.5H584.357V422.548H584.255L580.258 425.054V421.781L584.579 419.045H588.048Z" fill="#E03E0A"/>
</svg>
