<svg width="1920" height="959" viewBox="0 0 1920 959" fill="none" xmlns="http://www.w3.org/2000/svg">
<g clip-path="url(#clip0_117_1079)">
<rect width="1920" height="2794" transform="translate(0 -1554)" fill="white"/>
<rect y="957" width="1920" height="283" fill="#E8E8E8"/>
<g clip-path="url(#clip1_117_1079)">
<rect x="-2" width="1923" height="959" fill="white"/>
<path fill-rule="evenodd" clip-rule="evenodd" d="M979.292 -413.791C1175.57 -421.284 1405.6 -488.182 1563.82 -380.024C1732.49 -264.727 1665.77 -5.53506 1796.16 144.602C1915.73 282.282 2171.46 288.734 2273.54 437.171C2373.21 582.101 2355.61 768.701 2340.78 936.527C2326.35 1099.79 2257.67 1251.46 2188.28 1401.82C2119.66 1550.53 2034.9 1689.47 1932.58 1821.12C1821.97 1963.43 1722.43 2120.85 1558.24 2212.46C1391.29 2305.61 1186.86 2324.78 990.443 2346.81C788.596 2369.44 570.839 2420.9 383.676 2344.17C193.862 2266.35 98.9243 2074.59 -31.6482 1927.76C-142.991 1802.55 -252.838 1678.75 -334.481 1536.59C-413.242 1399.44 -435.724 1246.02 -504.328 1104.7C-589.139 929.986 -816.076 785.599 -789.833 598.569C-764.236 416.141 -529.165 323.647 -377.706 202.268C-249.055 99.1684 -100.199 24.8985 39.4639 -66.0226C178.589 -156.594 292.235 -278.622 451.523 -337.564C616.977 -398.788 799.284 -406.92 979.292 -413.791Z" stroke="#0C0C0C" stroke-opacity="0.18" stroke-width="2"/>
<path d="M1522.12 -177.469C1374.64 -292.745 1146.27 -241.876 954.503 -246.804C778.629 -251.323 600.435 -254.757 435.36 -205.394C276.436 -157.872 158.066 -46.0175 16.8233 33.589C-124.965 113.503 -274.677 176.615 -406.492 269.086C-561.676 377.95 -796.552 453.453 -832.868 629.663C-870.099 810.317 -657.911 965.185 -586.136 1140.75C-528.077 1282.77 -515.725 1433.71 -447.506 1572.28C-376.79 1715.93 -277.442 1843.44 -176.722 1972.41C-58.6082 2123.66 21.9754 2316.47 202.129 2404.14C379.768 2490.6 595.212 2454.01 793.354 2444.52C986.165 2435.3 1186.61 2429.35 1355.13 2348.96C1520.87 2269.9 1627.7 2122.68 1744.37 1990.87C1852.3 1868.93 1943.57 1738.79 2019.72 1598.13C2096.71 1455.9 2173.11 1312.35 2197.35 1154.13L2198.07 1149.43C2222.8 988.005 2250.19 809.287 2162.92 663.238C2072.68 512.203 1823.83 489.979 1715.87 348.337C1598.14 193.881 1679.32 -54.5848 1522.12 -177.469Z" stroke="#0C0C0C" stroke-opacity="0.18" stroke-width="2"/>
<path d="M1472.87 16.8826C1336.4 -104.591 1110.77 -69.2624 924.277 -86.0049C753.24 -101.36 579.876 -115.802 416.002 -77.9982C258.234 -41.6034 135.965 59.9819 -6.57728 128.73C-149.67 197.745 -299.434 249.899 -433.594 331.765C-591.538 428.146 -825.033 487.066 -871.382 656.45C-918.899 830.106 -721.852 994.178 -662.869 1169.67C-615.158 1311.62 -612.525 1459.42 -554.704 1598.65C-494.765 1742.99 -405.931 1873.38 -315.852 2005.28C-210.216 2159.97 -143.727 2352.8 26.3006 2449.43C193.954 2544.7 406.097 2522.48 599.697 2525.58C788.089 2528.6 983.709 2535.29 1152.87 2467.48C1319.24 2400.79 1432.47 2264.03 1554.33 2142.9C1667.06 2030.84 1764.07 1909.75 1847.01 1777.48C1930.86 1643.73 2014.22 1508.66 2047.68 1356.04L2048.68 1351.51C2082.83 1195.81 2120.64 1023.42 2044.72 875.721C1966.22 722.978 1725.21 685.833 1628.86 541.137C1523.8 383.349 1618.35 146.374 1472.87 16.8826Z" stroke="#0C0C0C" stroke-opacity="0.18" stroke-width="2"/>
<path d="M1416.83 202.62C1291.53 75.8689 1069.69 96.2196 889.173 68.3134C723.621 42.72 555.748 17.8707 393.861 44.4737C238.007 70.0853 112.653 161.37 -30.3921 219.426C-173.99 277.707 -323.034 319.158 -458.735 390.507C-618.495 474.504 -849.473 517.332 -905.136 679.345C-962.203 845.444 -780.586 1017.43 -734.088 1191.95C-696.475 1333.11 -703.111 1477.16 -655.487 1616.3C-606.119 1760.54 -527.753 1893.01 -448.269 2027.03C-355.059 2184.19 -302.332 2376.05 -142.822 2480.7C14.4613 2583.89 222.369 2575.46 410.648 2590.53C593.862 2605.19 783.885 2623.88 952.79 2568.39C1118.9 2513.82 1237.64 2387.74 1363.82 2277.39C1480.53 2175.32 1582.51 2063.48 1671.48 1939.87C1761.44 1814.89 1851 1688.57 1893.08 1542.09L1894.33 1537.73C1937.26 1388.28 1984.8 1222.82 1920.09 1074.3C1853.17 920.719 1620.85 869.558 1536.06 722.697C1443.61 562.549 1550.4 337.736 1416.83 202.62Z" stroke="#0C0C0C" stroke-opacity="0.18" stroke-width="2"/>
<path d="M1354.77 379.391C1240.75 248.282 1023.65 254.282 849.762 215.905C690.289 180.708 528.51 146.09 369.356 161.903C216.133 177.127 88.4981 258.141 -54.2818 305.726C-197.614 353.496 -345.196 384.554 -481.658 445.528C-642.313 517.312 -869.695 544.612 -933.927 698.773C-999.779 856.821 -833.781 1035.45 -799.398 1208.12C-771.585 1347.8 -787.001 1487.53 -749.321 1625.87C-710.263 1769.27 -642.26 1903.02 -573.266 2038.35C-492.357 2197.05 -452.993 2387 -304.314 2498.73C-157.712 2608.9 45.086 2613.63 227.326 2640C404.663 2665.67 588.373 2695.67 756.153 2652.19C921.156 2609.43 1044.52 2494.15 1174.14 2394.64C1294.04 2302.6 1400.21 2200.13 1494.46 2085.4C1589.76 1969.4 1684.75 1852.08 1734.79 1712.18L1736.28 1708.02C1787.35 1565.29 1843.88 1407.27 1790.17 1258.75C1734.62 1105.17 1511.78 1040.95 1438.42 892.791C1358.43 731.233 1476.31 519.154 1354.77 379.391Z" stroke="#0C0C0C" stroke-opacity="0.18" stroke-width="2"/>
<path d="M1287.46 546.91C1184.75 412.351 973.304 404.691 806.629 356.57C653.768 312.437 498.63 268.724 342.908 274.205C192.99 279.482 63.8607 350.315 -77.9155 387.705C-220.24 425.24 -365.658 446.263 -502.124 497.063C-662.783 556.87 -885.554 569.279 -957.586 715.169C-1031.43 864.74 -881.146 1048.73 -858.449 1218.75C-840.09 1356.28 -863.763 1491.18 -835.728 1628.02C-806.667 1769.87 -748.865 1904.14 -690.197 2040C-621.397 2199.32 -594.932 2386.45 -457.324 2504.32C-321.637 2620.55 -124.76 2637.75 50.7846 2674.72C221.606 2710.69 398.355 2751.28 564.182 2719.44C727.265 2688.12 854.376 2583.71 986.581 2495.02C1108.88 2412.98 1218.47 2319.96 1317.24 2214.27C1417.1 2107.41 1516.74 1999.25 1574.1 1866.34L1575.8 1862.4C1634.32 1726.8 1699.12 1576.67 1656.12 1428.94C1611.66 1276.16 1398.99 1199.87 1336.88 1051.27C1269.15 889.217 1396.95 690.35 1287.46 546.91Z" stroke="#0C0C0C" stroke-opacity="0.18" stroke-width="2"/>
<path d="M1215.71 704.952C1124.28 567.838 919.311 547.261 760.363 490.155C614.588 437.781 466.575 385.675 314.94 381.328C168.955 377.143 39.0965 437.941 -100.972 465.462C-241.582 493.09 -384.173 504.482 -519.915 545.362C-679.723 593.489 -896.932 591.708 -975.978 728.978C-1057.02 869.709 -922.429 1057.8 -910.939 1224.4C-901.644 1359.16 -933.024 1488.75 -914.286 1623.45C-894.861 1763.07 -847.042 1897.11 -798.481 2032.76C-741.533 2191.83 -727.444 2375.27 -601.068 2498.35C-476.458 2619.7 -286.245 2648.64 -117.987 2695.46C45.7441 2741.02 214.947 2791.44 378.039 2770.8C538.431 2750.5 668.415 2656.95 802.371 2579C926.285 2506.89 1038.54 2423.31 1141.07 2326.77C1244.73 2229.15 1348.26 2130.25 1412.24 2004.68L1414.14 2000.95C1479.42 1872.84 1551.7 1731.01 1519.1 1584.81C1485.39 1433.61 1283.51 1346.28 1232.39 1198.04C1176.65 1036.39 1313.17 851.115 1215.71 704.952Z" stroke="#0C0C0C" stroke-opacity="0.18" stroke-width="2"/>
<path d="M1140.3 853.354C1060.04 714.561 862.33 681.862 711.558 616.554C573.283 556.659 432.817 496.883 285.87 483.251C144.399 470.127 14.5516 521.094 -123.143 539.119C-261.371 557.214 -400.513 559.424 -534.837 590.687C-692.975 627.493 -903.743 612.282 -989.006 740.645C-1076.42 872.245 -957.428 1063.21 -956.613 1225.67C-955.954 1357.08 -994.462 1480.95 -984.63 1612.88C-974.438 1749.64 -936.332 1882.74 -897.606 2017.45C-852.191 2175.42 -849.898 2354.39 -734.844 2481.72C-621.397 2607.27 -438.525 2647.18 -278.076 2703.08C-121.944 2757.47 39.1993 2816.92 198.819 2807.01C355.797 2797.26 487.8 2714.5 622.69 2647.13C747.469 2584.81 861.643 2510.64 967.171 2423.27C1073.87 2334.93 1180.52 2245.35 1250.43 2127.41L1252.51 2123.91C1323.84 2003.58 1402.81 1870.37 1380.24 1726.4C1356.9 1577.52 1166.32 1480.2 1125.89 1333.11C1081.81 1172.71 1225.85 1001.31 1140.3 853.354Z" stroke="#0C0C0C" stroke-opacity="0.18" stroke-width="2"/>
<path d="M1062.05 992.018C992.799 852.398 803.025 808.414 660.811 735.708C530.384 669.027 397.825 602.327 256.118 579.989C119.691 558.483 -9.43568 599.873 -144.132 608.819C-279.349 617.8 -414.468 611.315 -546.715 633.312C-702.407 659.21 -905.93 631.382 -996.605 750.619C-1089.57 872.863 -985.977 1065.5 -995.262 1223.15C-1002.77 1350.67 -1047.81 1468.45 -1046.46 1597.04C-1045.05 1730.35 -1016.34 1861.83 -987.125 1994.91C-952.865 2150.98 -961.741 2324.74 -858.025 2455.4C-755.757 2584.24 -580.826 2634.29 -428.642 2698.47C-280.551 2760.92 -127.913 2828.59 27.5491 2828.87C180.439 2829.15 313.627 2757.05 448.663 2700.06C573.576 2647.35 688.937 2582.48 796.728 2504.26C905.718 2425.18 1014.74 2344.89 1089.87 2234.81L1092.1 2231.54C1168.76 2119.24 1253.63 1994.9 1240.67 1853.84C1227.26 1707.97 1048.41 1601.74 1018.32 1456.54C985.502 1298.2 1135.86 1140.85 1062.05 992.018Z" stroke="#0C0C0C" stroke-opacity="0.18" stroke-width="2"/>
<path d="M981.747 1120.91C923.277 981.284 742.054 926.89 608.712 847.603C486.421 774.887 362.065 702.02 226.092 671.586C95.1856 642.286 -32.5417 674.403 -163.657 674.728C-295.28 675.054 -425.849 660.394 -555.399 673.521C-707.917 688.976 -903.468 649.39 -998.748 759.347C-1096.43 872.078 -1007.96 1065.22 -1026.73 1217.45C-1041.91 1340.6 -1092.87 1451.97 -1099.52 1576.7C-1106.42 1706 -1086.74 1835.23 -1066.67 1966.03C-1043.13 2119.43 -1062.5 2287.31 -970.066 2420.38C-878.921 2551.6 -712.463 2610.96 -568.927 2682.6C-429.253 2752.31 -285.494 2827.36 -134.822 2837.26C13.3571 2847.01 146.925 2785.38 281.346 2738.51C405.692 2695.15 521.531 2639.42 630.86 2570.29C741.405 2500.39 852.052 2429.31 931.7 2327.27L934.065 2324.24C1015.33 2220.14 1105.31 2104.88 1101.48 1967.35C1097.52 1825.12 930.747 1711.06 910.574 1568.46C888.577 1412.95 1044.07 1269.75 981.747 1120.91Z" stroke="#0C0C0C" stroke-opacity="0.18" stroke-width="2"/>
<path d="M900.19 1240.05C852.211 1101.21 680.072 1037.31 555.845 952.271C441.915 874.278 325.993 796.01 196.194 758.117C71.2311 721.637 -54.4555 744.832 -181.455 737.029C-308.945 729.195 -434.488 706.914 -560.764 711.606C-709.427 717.129 -896.359 666.684 -995.441 767.274C-1097.02 870.4 -1023.3 1062.93 -1050.9 1209.2C-1073.23 1327.52 -1129.47 1432.22 -1143.64 1552.6C-1158.33 1677.39 -1147.27 1803.77 -1135.93 1931.69C-1122.63 2081.7 -1151.79 2243.09 -1070.51 2377.69C-990.362 2510.41 -832.83 2578.2 -698.258 2656.47C-567.306 2732.63 -432.728 2814.21 -287.423 2833.13C-144.522 2851.74 -11.3513 2800.33 121.732 2763.26C244.839 2728.97 360.475 2682.17 470.635 2621.98C582.021 2561.13 693.577 2499.15 777.03 2405.26L779.509 2402.47C864.658 2306.68 958.929 2200.63 963.736 2067.2C968.707 1929.21 814.26 1808.43 803.554 1669.07C791.879 1517.11 951.337 1388.06 900.19 1240.05Z" stroke="#0C0C0C" stroke-opacity="0.18" stroke-width="2"/>
<path d="M818.157 1349.54C780.322 1212.23 617.721 1139.76 502.785 1049.79C397.376 967.28 290.057 884.381 166.813 839.689C48.1611 796.662 -74.8825 811.331 -197.279 795.924C-320.148 780.458 -440.24 751.134 -562.708 747.863C-706.89 744.011 -884.636 683.64 -986.726 774.837C-1091.39 868.334 -1031.97 1059.17 -1067.72 1198.99C-1096.65 1312.09 -1157.54 1409.91 -1178.7 1525.52C-1200.63 1645.35 -1197.74 1768.31 -1194.68 1892.78C-1191.1 2038.75 -1229.29 2193.1 -1158.97 2328.36C-1089.64 2461.73 -941.41 2537.06 -816.045 2621.12C-694.054 2702.91 -568.888 2790.17 -429.468 2817.46C-292.355 2844.31 -160.325 2802.8 -29.2667 2775.17C91.9676 2749.6 206.746 2711.47 317.055 2660.06C428.591 2608.07 540.362 2555 626.915 2469.32L629.485 2466.78C717.797 2379.36 815.57 2282.58 828.475 2153.78C841.821 2020.57 699.855 1894.16 698.117 1758.66C696.221 1610.9 858.489 1495.9 818.157 1349.54Z" stroke="#0C0C0C" stroke-opacity="0.18" stroke-width="2"/>
<path d="M736.409 1449.5C708.323 1314.45 555.631 1234.34 450.094 1140.28C353.304 1054.01 254.693 967.25 138.327 916.434C26.2972 867.512 -93.543 874.087 -210.899 851.632C-328.709 829.09 -442.977 793.324 -561.153 782.593C-700.281 769.961 -868.359 700.622 -972.675 782.464C-1079.62 866.37 -1033.98 1054.51 -1077.18 1187.45C-1112.12 1294.98 -1177.03 1385.77 -1204.62 1496.21C-1233.22 1610.68 -1238.04 1729.71 -1242.77 1850.22C-1248.33 1991.53 -1294.78 2138.36 -1235.17 2273.45C-1176.39 2406.65 -1037.77 2488.63 -921.789 2577.62C-808.926 2664.22 -693.334 2756.3 -560.257 2791.3C-429.382 2825.72 -299.197 2793.76 -170.809 2775.15C-52.0441 2757.93 61.2574 2728.17 171.059 2685.29C282.082 2641.93 393.399 2597.54 482.356 2520.07L484.999 2517.77C575.763 2438.73 676.249 2351.23 696.683 2227.52C717.815 2099.59 588.403 1968.62 595.096 1837.54C602.395 1694.6 766.349 1593.47 736.409 1449.5Z" stroke="#0C0C0C" stroke-opacity="0.18" stroke-width="2"/>
<path d="M655.687 1540.16C636.905 1408.01 494.414 1321.24 398.316 1223.9C310.183 1134.63 220.321 1044.77 111.097 988.515C5.94367 934.362 -110.178 933.312 -222.108 904.385C-334.472 875.346 -442.599 833.757 -556.045 816.101C-689.605 795.315 -847.617 717.987 -953.395 790.572C-1061.84 864.988 -1029.38 1049.47 -1079.3 1175.16C-1119.68 1276.84 -1187.96 1360.5 -1221.42 1465.43C-1256.1 1574.2 -1268.1 1688.84 -1280.11 1804.9C-1294.2 1941.01 -1348.12 2079.92 -1298.9 2214.04C-1250.36 2346.28 -1121.58 2434 -1015.08 2527.09C-911.446 2617.67 -805.516 2713.72 -679.18 2755.73C-554.935 2797.04 -427.257 2774.22 -302.139 2764.17C-186.399 2754.88 -75.1603 2733.13 33.5092 2698.51C143.388 2663.5 253.614 2627.51 344.291 2558.19L346.984 2556.13C439.503 2485.42 541.934 2407.13 569.301 2288.94C597.603 2166.72 480.73 2032.27 495.284 1906.12C511.155 1768.55 675.709 1681.02 655.687 1540.16Z" stroke="#0C0C0C" stroke-opacity="0.18" stroke-width="2"/>
<path d="M576.708 1621.76C566.741 1493.15 434.659 1400.67 347.975 1300.86C268.476 1209.32 187.346 1117.11 85.4686 1056.12C-12.6123 997.405 -124.546 989.233 -230.719 954.431C-337.302 919.495 -439.026 872.715 -547.356 848.69C-674.892 820.406 -822.526 736.08 -929.024 799.566C-1038.21 864.653 -1018.28 1044.59 -1074.18 1162.74C-1119.39 1258.32 -1190.4 1334.8 -1229.15 1433.94C-1269.31 1536.71 -1287.94 1646.53 -1306.68 1757.74C-1328.66 1888.14 -1389.23 2018.8 -1350.03 2151.19C-1311.38 2281.73 -1192.57 2374.27 -1095.59 2470.62C-1001.23 2564.38 -904.98 2663.55 -785.72 2711.86C-668.434 2759.37 -543.882 2745.22 -422.587 2743.25C-310.383 2741.42 -201.753 2727.31 -94.8064 2700.62C13.3296 2673.62 121.862 2645.71 213.594 2584.44L216.319 2582.62C309.913 2520.13 413.534 2450.93 447.217 2338.63C482.05 2222.49 377.617 2085.61 399.434 1964.83C423.224 1833.13 587.333 1758.85 576.708 1621.76Z" stroke="#0C0C0C" stroke-opacity="0.18" stroke-width="2"/>
<path d="M500.157 1694.61C498.476 1570.11 376.932 1472.89 299.574 1371.4C228.628 1278.32 156.151 1184.49 61.7656 1119.46C-29.103 1056.86 -136.429 1042.09 -236.566 1002.03C-337.09 961.808 -432.203 910.478 -535.081 880.663C-656.198 845.561 -793.226 755.235 -899.729 809.834C-1008.92 865.81 -1000.8 1040.37 -1061.93 1150.75C-1111.37 1240.04 -1184.49 1309.34 -1227.92 1402.46C-1272.93 1498.99 -1297.65 1603.64 -1322.55 1709.61C-1351.76 1833.88 -1418.16 1956.02 -1388.54 2085.97C-1359.35 2214.11 -1250.6 2310.57 -1163.11 2409.36C-1077.98 2505.49 -991.366 2606.95 -879.454 2660.84C-769.394 2713.83 -648.537 2707.87 -531.568 2713.44C-423.366 2718.59 -317.85 2711.69 -213.18 2692.56C-107.347 2673.21 -1.07474 2653.01 91.0672 2599.64L93.8038 2598.05C187.815 2543.61 291.898 2483.34 331.263 2377.23C371.972 2267.49 279.798 2129.2 308.253 2014.19C339.283 1888.78 501.949 1827.34 500.157 1694.61Z" stroke="#0C0C0C" stroke-opacity="0.18" stroke-width="2"/>
<path d="M426.69 1759.08C432.731 1639.2 321.774 1538.19 253.592 1435.78C191.059 1341.87 127.102 1247.14 40.2942 1178.77C-43.2789 1112.96 -145.628 1092.15 -239.504 1047.44C-333.743 1002.56 -422.093 947.33 -519.238 912.317C-633.604 871.097 -759.882 775.766 -865.705 821.745C-974.198 868.883 -977.124 1037.33 -1042.72 1139.76C-1095.78 1222.62 -1170.39 1284.8 -1217.9 1371.72C-1267.15 1461.82 -1297.37 1560.98 -1327.84 1661.41C-1363.59 1779.17 -1434.98 1892.59 -1414.48 2019.43C-1394.27 2144.51 -1295.58 2244.01 -1217.48 2344.43C-1141.49 2442.16 -1064.41 2545.1 -960.05 2603.82C-857.423 2661.58 -740.781 2663.28 -628.589 2675.83C-524.805 2687.44 -422.864 2687.29 -320.986 2675.32C-217.975 2663.22 -114.489 2650.32 -22.5579 2604.64L-19.8273 2603.28C73.9689 2556.69 177.813 2505.1 222.212 2405.43C268.127 2302.36 187.954 2163.64 222.404 2054.75C259.971 1936 420.25 1886.89 426.69 1759.08Z" stroke="#0C0C0C" stroke-opacity="0.18" stroke-width="2"/>
<path d="M356.922 1815.58C370.089 1700.77 269.692 1596.91 210.475 1494.34C156.166 1400.27 100.537 1305.33 21.3358 1234.31C-54.9145 1165.95 -151.969 1139.67 -239.414 1090.95C-327.198 1042.05 -408.688 983.553 -499.869 943.948C-607.215 897.32 -722.681 797.975 -827.175 835.649C-934.306 874.273 -947.463 1035.93 -1016.78 1130.31C-1072.85 1206.66 -1148.35 1261.82 -1199.33 1342.41C-1252.18 1425.95 -1287.3 1519.36 -1322.75 1613.97C-1364.32 1724.92 -1439.88 1829.5 -1427.98 1952.62C-1416.25 2074.03 -1327.53 2175.69 -1258.68 2276.97C-1191.67 2375.53 -1123.93 2479.16 -1027.28 2541.99C-932.225 2603.78 -820.266 2612.58 -713.248 2631.53C-614.251 2649.06 -516.302 2655.18 -417.687 2649.93C-317.976 2644.64 -217.759 2638.59 -126.63 2600.36L-123.923 2599.22C-30.9465 2560.22 71.9908 2517.03 120.769 2424C171.213 2327.8 102.707 2189.6 142.494 2087.09C185.88 1975.31 342.885 1937.97 356.922 1815.58Z" stroke="#0C0C0C" stroke-opacity="0.18" stroke-width="2"/>
<path d="M291.431 1864.56C311.105 1755.22 221.162 1649.43 170.646 1547.4C124.315 1453.83 76.773 1359.34 5.14939 1286.36C-63.8052 1216.09 -155.299 1184.93 -236.199 1132.84C-317.411 1080.54 -391.998 1019.43 -477.04 975.84C-577.158 924.527 -681.833 822.142 -784.386 851.874C-889.526 882.357 -912.062 1036.63 -984.346 1122.92C-1042.82 1192.72 -1118.63 1241 -1172.48 1315.19C-1228.3 1392.09 -1267.72 1479.55 -1307.53 1568.13C-1354.22 1672.01 -1433.11 1767.71 -1429.25 1886.55C-1425.44 2003.74 -1346.57 2106.7 -1286.73 2208.08C-1228.49 2306.74 -1169.86 2410.31 -1081 2476.51C-993.602 2541.62 -886.738 2556.93 -785.237 2581.67C-691.343 2604.56 -597.754 2616.43 -502.831 2617.45C-406.851 2618.48 -310.342 2618.84 -220.576 2587.74L-217.91 2586.82C-126.324 2555.1 -24.9265 2519.99 27.5728 2433.74C81.8644 2344.54 24.6215 2207.76 69.0762 2111.87C117.553 2007.3 270.459 1981.11 291.431 1864.56Z" stroke="#0C0C0C" stroke-opacity="0.18" stroke-width="2"/>
<path d="M230.751 1906.5C256.288 1802.99 176.624 1696.16 134.488 1595.35C95.8447 1502.89 56.0966 1409.48 -8.03241 1335.2C-69.7716 1263.68 -155.492 1228.23 -229.784 1173.38C-304.363 1118.32 -372.057 1055.23 -450.837 1008.27C-543.584 952.997 -637.568 848.528 -737.609 870.725C-840.174 893.482 -871.204 1039.85 -945.718 1118.08C-1005.99 1181.35 -1081.56 1222.95 -1137.67 1290.7C-1195.85 1360.93 -1238.96 1442.29 -1282.51 1524.69C-1333.58 1621.33 -1415.01 1708.14 -1418.58 1822.21C-1422.11 1934.68 -1352.88 2038.12 -1301.77 2138.88C-1252.03 2236.94 -1202.23 2339.72 -1121.17 2408.57C-1041.45 2476.27 -940.039 2497.48 -844.34 2527.39C-755.815 2555.06 -666.907 2572.16 -576.056 2578.95C-484.195 2585.82 -391.784 2592.06 -303.907 2567.78L-301.296 2567.06C-211.638 2542.29 -112.374 2514.87 -56.8115 2435.48C0.648113 2353.37 -45.8015 2218.87 2.6469 2129.75C55.4785 2032.56 203.529 2016.84 230.751 1906.5Z" stroke="#0C0C0C" stroke-opacity="0.18" stroke-width="2"/>
<path d="M175.372 1941.94C206.114 1844.54 136.479 1737.53 102.357 1638.57C71.0627 1547.82 38.7703 1456.08 -18.0007 1381.14C-72.6561 1308.99 -152.444 1269.86 -220.119 1212.88C-288.056 1155.68 -348.919 1091.22 -421.368 1041.51C-506.662 982.998 -590.131 877.375 -687.134 892.481C-786.583 907.969 -825.196 1046.01 -901.218 1116.24C-962.712 1173.05 -1037.5 1208.21 -1095.29 1269.55C-1155.2 1333.14 -1201.39 1408.29 -1248.07 1484.41C-1302.8 1573.68 -1385.95 1651.7 -1396.35 1760.54C-1406.59 1867.85 -1346.73 1970.98 -1304.02 2070.44C-1262.46 2167.22 -1221.13 2268.54 -1147.84 2339.31C-1075.76 2408.92 -980.102 2435.39 -890.436 2469.84C-807.492 2501.7 -723.535 2523.49 -637.091 2535.53C-549.685 2547.71 -461.716 2559.33 -376.215 2541.49L-373.675 2540.96C-286.442 2522.76 -189.863 2502.61 -131.889 2430.1C-71.9356 2355.11 -108.123 2223.68 -56.3558 2141.44C0.094917 2051.75 142.602 2045.77 175.372 1941.94Z" stroke="#0C0C0C" stroke-opacity="0.18" stroke-width="2"/>
<path d="M125.735 1971.43C161.012 1880.37 101.092 1774.01 74.5684 1677.5C50.243 1588.99 25.0249 1499.48 -24.5758 1424.51C-72.3281 1352.33 -146.077 1310.12 -207.178 1251.62C-268.516 1192.89 -322.661 1127.67 -388.762 1075.82C-466.582 1014.78 -539.787 908.897 -633.271 917.395C-729.113 926.107 -774.381 1055.48 -851.207 1117.86C-913.352 1168.31 -986.861 1197.3 -1045.75 1252.31C-1106.8 1309.33 -1155.46 1378.22 -1204.64 1448.01C-1262.32 1529.85 -1346.42 1599.24 -1362.98 1702.45C-1379.3 1804.23 -1328.47 1906.29 -1293.78 2003.8C-1260.03 2098.69 -1226.77 2197.89 -1161.15 2269.9C-1096.62 2340.71 -1006.96 2371.81 -923.496 2410.15C-846.292 2445.62 -767.507 2471.53 -685.754 2488.3C-603.092 2505.25 -519.858 2521.7 -437.182 2509.89L-434.726 2509.54C-350.375 2497.5 -256.988 2484.16 -197.244 2418.51C-135.46 2350.61 -161.973 2222.99 -107.558 2147.66C-48.2193 2065.53 88.1297 2068.51 125.735 1971.43Z" stroke="#0C0C0C" stroke-opacity="0.18" stroke-width="2"/>
<path d="M82.2287 1995.58C121.364 1911.01 70.7818 1806.09 51.4006 1712.57C33.6257 1626.81 15.0613 1540.05 -27.6054 1465.63C-68.6821 1393.99 -136.338 1349.32 -190.959 1289.89C-245.791 1230.23 -293.379 1164.83 -353.165 1111.43C-423.551 1048.57 -486.813 943.29 -576.348 945.691C-668.142 948.152 -719.123 1068.59 -796.076 1123.31C-858.324 1167.57 -930.085 1190.69 -989.511 1239.49C-1051.11 1290.08 -1101.64 1352.71 -1152.72 1416.17C-1212.63 1490.59 -1296.94 1551.54 -1318.99 1648.82C-1340.73 1744.74 -1298.53 1845.02 -1271.44 1939.98C-1245.08 2032.4 -1219.45 2128.88 -1161.35 2201.44C-1104.21 2272.8 -1020.72 2307.87 -943.583 2349.46C-872.227 2387.94 -798.783 2417.4 -721.957 2438.35C-644.276 2459.52 -566.02 2480.26 -486.575 2474.04L-484.215 2473.86C-403.16 2467.53 -313.423 2460.51 -252.536 2401.63C-189.571 2340.74 -207.048 2217.6 -150.647 2149.19C-89.1429 2074.59 40.5101 2085.73 82.2287 1995.58Z" stroke="#0C0C0C" stroke-opacity="0.18" stroke-width="2"/>
</g>
</g>
<defs>
<clipPath id="clip0_117_1079">
<rect width="1920" height="2794" fill="white" transform="translate(0 -1554)"/>
</clipPath>
<clipPath id="clip1_117_1079">
<rect width="1923" height="959" fill="white" transform="translate(-2)"/>
</clipPath>
</defs>
</svg>
